<svg width="42" height="44" viewBox="0 0 42 44" fill="none" xmlns="http://www.w3.org/2000/svg">
<path d="M14.3273 43.647H14.093L0.710734 40.1024C0.513498 40.0561 0.337089 39.9461 0.208651 39.7895C0.0802133 39.6328 0.00697682 39.4382 0.000307833 39.2357V6.80277C-0.00368611 6.66048 0.0312473 6.5198 0.10143 6.39595C0.171612 6.2721 0.27438 6.16979 0.398505 6.10009C0.509053 6.01794 0.636082 5.96075 0.770873 5.93245C0.905665 5.90414 1.04501 5.9054 1.17927 5.93614L5.1924 7.27905C5.38462 7.34788 5.54929 7.47713 5.66189 7.64744C5.77449 7.81775 5.82891 8.01995 5.81696 8.22377V8.53607C5.80251 8.93101 5.83129 9.32635 5.90283 9.71503L5.98089 9.95707C6.21512 11.0579 9.75987 15.8596 12.5082 19.4824C12.8283 19.0842 13.2186 18.6157 13.6168 18.0614C13.7268 17.9014 13.8879 17.7833 14.0737 17.7266C14.2594 17.6699 14.4589 17.6778 14.6396 17.7491C14.8215 17.8097 14.9797 17.9261 15.0918 18.0816C15.2039 18.2371 15.2642 18.424 15.2642 18.6157L15.1861 42.7023C15.186 42.844 15.1502 42.9834 15.0819 43.1075C15.0137 43.2317 14.9153 43.3367 14.7957 43.4128C14.7421 43.4864 14.6716 43.5461 14.5901 43.5869C14.5086 43.6276 14.4184 43.6483 14.3273 43.647ZM1.88969 38.4471L13.3826 41.5233L13.4607 21.3718C13.3045 21.528 13.3045 21.6061 13.3045 21.6061C13.2201 21.7096 13.1125 21.7918 12.9904 21.8461C12.8683 21.9004 12.7353 21.9251 12.6018 21.9184C12.4685 21.9168 12.3368 21.8883 12.2147 21.8346C12.0926 21.781 11.9827 21.7032 11.8913 21.6061C11.8913 21.6061 10.0799 19.3184 8.34662 16.8824C5.04399 12.315 4.48964 10.9799 4.33349 10.4255L4.25543 10.1913C4.16564 9.77785 4.11342 9.35712 4.09932 8.93427L1.88969 8.06763V38.4471Z" fill="#E08F40"/>
<path d="M14.3275 43.6475C14.1368 43.6322 13.951 43.5791 13.781 43.4914C13.665 43.411 13.5688 43.3052 13.4999 43.1821C13.4309 43.059 13.3909 42.9218 13.3828 42.7809L13.4609 18.7724C13.464 18.5761 13.5207 18.3845 13.6248 18.2181C17.3959 13.2602 18.895 10.8242 19.0901 10.1918L19.1682 9.95757C19.163 9.91398 19.1673 9.8698 19.1808 9.82802C19.1943 9.78624 19.2167 9.74787 19.2464 9.71553C19.2669 9.55933 19.3292 9.41158 19.4268 9.28789C19.5243 9.1642 19.6535 9.06918 19.8007 9.01285L26.2576 6.67056C26.3997 6.62354 26.5499 6.60621 26.699 6.61964C26.848 6.63307 26.9928 6.67698 27.1242 6.74864C27.2454 6.83955 27.3438 6.95743 27.4116 7.09294C27.4793 7.22846 27.5146 7.37789 27.5146 7.52941V39.3924C27.5247 39.5875 27.4673 39.7801 27.3521 39.9379C27.237 40.0957 27.071 40.2091 26.8821 40.259L14.6164 43.8037C14.4837 43.6085 14.4056 43.6475 14.3275 43.6475ZM15.2722 18.9286L15.1941 41.4458L25.5862 38.4476V8.53657L20.9016 10.2699V10.348C20.7845 10.8164 20.4721 12.0813 15.2722 18.9286Z" fill="#E08F40"/>
<path d="M40.1471 43.6468H39.913L26.2183 40.1022C26.0205 40.0572 25.8433 39.9475 25.7146 39.7906C25.586 39.6337 25.5132 39.4384 25.5078 39.2355V7.27887C25.5072 7.13705 25.5428 6.9974 25.6111 6.8731C25.6794 6.7488 25.7782 6.64393 25.8982 6.56838C26.0103 6.48937 26.1376 6.43467 26.2721 6.40778C26.4066 6.38089 26.5451 6.38239 26.679 6.41221L40.3814 10.1911C40.5778 10.2377 40.7533 10.3479 40.8804 10.5047C41.0076 10.6615 41.0792 10.856 41.0841 11.0578V42.7021C41.0774 42.9708 40.9652 43.226 40.7718 43.4126C40.595 43.5573 40.3754 43.6396 40.1471 43.6468ZM27.3973 38.447L39.2805 41.5231V11.6824L27.3973 8.47344V38.447Z" fill="#E08F40"/>
<path d="M12.5162 21.9181C12.3842 21.9155 12.254 21.8865 12.1333 21.8329C12.0127 21.7792 11.9039 21.702 11.8135 21.6058C11.8135 21.6058 10.0021 19.3182 8.26879 16.8822C4.96616 12.3147 4.41181 10.9796 4.25566 10.4253L4.1776 10.1911C4.08395 9.67556 4.03177 9.15338 4.02148 8.62954V8.16107C4.1113 5.92645 5.07791 3.81719 6.71194 2.29024C8.34596 0.763295 10.5157 -0.0583834 12.7513 0.00323105C14.9869 0.0648455 17.1082 1.00478 18.6557 2.61941C20.2031 4.23404 21.052 6.39336 21.0186 8.62954C21.0318 9.02414 21.0056 9.41905 20.9406 9.80847C20.9406 9.97243 20.9406 10.0505 20.8625 10.1286V10.4409C20.7844 10.8391 20.4721 12.1742 15.1161 19.2557L13.3047 21.598C13.0818 21.7846 12.8061 21.8965 12.5162 21.9181ZM6.028 10.0349C6.26223 11.1358 9.80689 15.9375 12.5552 19.5602C12.8753 19.162 13.2657 18.6936 13.6639 18.1392C17.435 13.1814 18.934 10.7376 19.1292 10.113L19.2073 9.87874C19.2016 9.83513 19.2056 9.79079 19.2191 9.74893C19.2326 9.70707 19.2552 9.66874 19.2854 9.63671C19.3504 9.32624 19.3766 9.00891 19.3634 8.69199C19.3834 6.93809 18.714 5.24646 17.4992 3.98127C16.2843 2.71608 14.6212 1.97848 12.868 1.92731C11.1147 1.87613 9.41145 2.51546 8.12488 3.70764C6.8383 4.89982 6.07124 6.54952 5.98893 8.30161V8.61391C5.97577 9.00851 6.002 9.40345 6.06708 9.79287L6.028 10.0349Z" fill="#E08F40"/>
<path d="M12.5151 12.2372C11.7217 12.2357 10.9466 11.999 10.2877 11.5571C9.62874 11.1151 9.11551 10.4879 8.81297 9.75442C8.51042 9.02098 8.43212 8.21432 8.58785 7.43636C8.74358 6.65841 9.12634 5.94408 9.68789 5.38362C10.2494 4.82315 10.9646 4.44169 11.7428 4.28748C12.5211 4.13326 13.3276 4.2132 14.0604 4.51717C14.7933 4.82114 15.4196 5.33552 15.8602 5.9953C16.3009 6.65509 16.536 7.43067 16.536 8.22406C16.5318 9.28849 16.1067 10.308 15.3533 11.06C14.5999 11.8119 13.5795 12.2351 12.5151 12.2372ZM12.5151 5.99109C12.08 5.99263 11.655 6.12307 11.2939 6.36593C10.9329 6.6088 10.6519 6.95321 10.4865 7.35566C10.321 7.75811 10.2786 8.20056 10.3644 8.62714C10.4502 9.05372 10.6605 9.4453 10.9687 9.75244C11.277 10.0596 11.6693 10.2685 12.0962 10.3528C12.5231 10.4372 12.9654 10.3931 13.3673 10.2262C13.7691 10.0594 14.1125 9.77715 14.3541 9.41524C14.5957 9.05334 14.7246 8.62798 14.7246 8.19285C14.7164 7.61298 14.4798 7.05976 14.0661 6.65336C13.6524 6.24696 13.095 6.02019 12.5151 6.0223V5.99109Z" fill="#E08F40"/>
<path d="M10.9462 22.7852H9.13477V24.5965H10.9462V22.7852Z" fill="#E08F40"/>
<path d="M10.9462 25.4629H9.13477V27.2742H10.9462V25.4629Z" fill="#E08F40"/>
<path d="M10.9462 28.2188H9.13477V30.0301H10.9462V28.2188Z" fill="#E08F40"/>
<path d="M10.9462 30.9766H9.13477V32.7879H10.9462V30.9766Z" fill="#E08F40"/>
<path d="M10.9462 33.7227H9.13477V35.534H10.9462V33.7227Z" fill="#E08F40"/>
<path d="M35.5795 41.9148C35.3302 41.9108 35.0922 41.81 34.9159 41.6337C34.7396 41.4574 34.6388 41.2194 34.6348 40.9701V18.1406C34.6388 17.8913 34.7396 17.6533 34.9159 17.477C35.0922 17.3007 35.3302 17.1999 35.5795 17.1959C35.7047 17.1915 35.8295 17.213 35.9461 17.2589C36.0627 17.3048 36.1686 17.3742 36.2572 17.4628C36.3458 17.5515 36.4152 17.6574 36.4612 17.774C36.5071 17.8905 36.5286 18.0153 36.5242 18.1406V40.9701C36.5298 41.0956 36.5091 41.221 36.4635 41.3381C36.418 41.4552 36.3486 41.5616 36.2598 41.6504C36.1709 41.7393 36.0646 41.8087 35.9474 41.8542C35.8303 41.8997 35.705 41.9204 35.5795 41.9148Z" fill="#E08F40"/>
<path d="M35.5795 16.407C35.3302 16.403 35.0922 16.3021 34.9159 16.1258C34.7396 15.9495 34.6388 15.7116 34.6348 15.4623V14.5175C34.6388 14.2682 34.7396 14.0303 34.9159 13.854C35.0922 13.6777 35.3302 13.5768 35.5795 13.5728C35.7047 13.5685 35.8295 13.5899 35.9461 13.6358C36.0627 13.6818 36.1686 13.7512 36.2572 13.8398C36.3458 13.9284 36.4152 14.0343 36.4612 14.1509C36.5071 14.2675 36.5286 14.3923 36.5242 14.5175V15.5013C36.5123 15.7444 36.4077 15.9737 36.232 16.1421C36.0564 16.3105 35.8228 16.4053 35.5795 16.407Z" fill="#E08F40"/>
<path d="M18.2631 41.9155C18.0138 41.9115 17.7758 41.8107 17.5995 41.6344C17.4232 41.4581 17.3224 41.2201 17.3184 40.9708V26.433C17.3184 26.1824 17.418 25.9422 17.5951 25.765C17.7723 25.5878 18.0126 25.4883 18.2631 25.4883C18.5137 25.4883 18.754 25.5878 18.9312 25.765C19.1083 25.9422 19.2078 26.1824 19.2078 26.433V40.9942C19.1998 41.2401 19.097 41.4732 18.9209 41.645C18.7448 41.8167 18.5091 41.9136 18.2631 41.9155Z" fill="#E08F40"/>
</svg>
