<svg width="42" height="44" fill="none" xmlns="http://www.w3.org/2000/svg"><path d="M14.327 43.647h-.234L.711 40.102a.922.922 0 01-.71-.866V6.803A.78.78 0 01.398 6.1a.952.952 0 01.78-.164L5.192 7.28a.945.945 0 01.625.945v.312c-.014.395.014.79.086 1.179l.078.242c.234 1.1 3.779 5.903 6.527 9.525.32-.398.71-.866 1.109-1.42a.859.859 0 011.023-.313.914.914 0 01.624.867l-.078 24.086a.842.842 0 01-.39.71.57.57 0 01-.469.235zm-12.437-5.2l11.493 3.076.078-20.151c-.156.156-.156.234-.156.234a.852.852 0 01-.703.312.991.991 0 01-.71-.312s-1.812-2.288-3.545-4.724c-3.303-4.567-3.857-5.902-4.014-6.457l-.078-.234A7.027 7.027 0 014.1 8.934l-2.21-.866v30.38z" fill="#E08F40"/><path d="M14.328 43.648a1.444 1.444 0 01-.547-.157.928.928 0 01-.398-.71l.078-24.009c.003-.196.06-.387.164-.554 3.77-4.958 5.27-7.394 5.465-8.026l.078-.234a.304.304 0 01.078-.242.874.874 0 01.555-.703l6.457-2.342a1.093 1.093 0 01.866.078.977.977 0 01.39.78v31.863a.85.85 0 01-.632.867l-12.266 3.545c-.132-.196-.21-.157-.288-.157zm.944-24.72l-.078 22.518 10.392-2.998V8.537l-4.684 1.733v.078c-.117.468-.43 1.733-5.63 8.58z" fill="#E08F40"/><path d="M40.147 43.647h-.234l-13.695-3.545a.914.914 0 01-.71-.866V7.279a.835.835 0 01.39-.71.984.984 0 01.781-.157l13.702 3.78a.914.914 0 01.703.866v31.644a1.023 1.023 0 01-.312.71 1.038 1.038 0 01-.625.235zm-12.75-5.2l11.884 3.076v-29.84l-11.884-3.21v29.974zM12.516 21.918a.992.992 0 01-.703-.312s-1.81-2.288-3.544-4.724c-3.303-4.567-3.857-5.902-4.013-6.457l-.078-.234A9.815 9.815 0 014.02 8.63v-.47a8.503 8.503 0 0116.998.469c.013.394-.013.789-.078 1.178 0 .164 0 .242-.078.32v.313c-.079.398-.39 1.733-5.747 8.815l-1.811 2.342a1.389 1.389 0 01-.789.32zM6.028 10.035c.234 1.1 3.779 5.902 6.527 9.525.32-.398.71-.866 1.109-1.42 3.771-4.959 5.27-7.402 5.465-8.027l.078-.234a.297.297 0 01.078-.242c.065-.31.092-.628.078-.945a6.691 6.691 0 00-13.374-.39v.312c-.013.395.013.79.078 1.179l-.039.242z" fill="#E08F40"/><path d="M12.515 12.237a4.013 4.013 0 114.021-4.013 4.03 4.03 0 01-4.02 4.013zm0-6.246a2.202 2.202 0 102.21 2.202 2.202 2.202 0 00-2.21-2.17V5.99zm-1.569 16.794H9.135v1.811h1.811v-1.81zm0 2.678H9.135v1.811h1.811v-1.811zm0 2.756H9.135v1.811h1.811v-1.81zm0 2.758H9.135v1.81h1.811v-1.81zm0 2.746H9.135v1.811h1.811v-1.811zm24.634 8.192a.96.96 0 01-.945-.945V18.14a.96.96 0 01.945-.944.913.913 0 01.944.945v22.83a.903.903 0 01-.944.944zm0-25.508a.96.96 0 01-.945-.945v-.944a.96.96 0 01.945-.945.915.915 0 01.944.944v.984a.952.952 0 01-.944.906zM18.263 41.916a.96.96 0 01-.945-.945V26.433a.945.945 0 011.89 0v14.561a.952.952 0 01-.945.922z" fill="#E08F40"/></svg>