<svg width="1920" height="571" fill="none" xmlns="http://www.w3.org/2000/svg"><path d="M580 482.859l.472.882-.472-.882zm154-336.591l-.132.991.132-.991zm94 352l-.826-.563.826.563zm268-113.229l.68-.734-.05-.045-.05-.038-.58.817zm190 47.82l1 .014-1-.014zm-130-321.82l.98-.194-.98.194zm205-68.04l.41-.911-.41.912zm250 0l-.95-.325.95.326zm150 .002l.62-.787-.62.787zM264 320.86l.203.98-.203-.98zM.613 482.069a1 1 0 00-1.226 1.58l1.226-1.58zm-1.226 1.58c.799.62 1.596 1.235 2.391 1.845l1.218-1.587c-.793-.608-1.587-1.22-2.383-1.838l-1.226 1.58zm8.719 6.625a501.69 501.69 0 004.802 3.528l1.175-1.618a519.33 519.33 0 01-4.784-3.515l-1.193 1.605zm11.245 8.127a473.74 473.74 0 004.916 3.402l1.127-1.651a472.137 472.137 0 01-4.895-3.389l-1.148 1.638zm11.467 7.793c1.69 1.111 3.371 2.2 5.042 3.266l1.076-1.686a435.277 435.277 0 01-5.02-3.251l-1.098 1.671zm11.747 7.453a395.252 395.252 0 005.127 3.081l1.017-1.723c-1.69-.997-3.39-2.019-5.1-3.064l-1.044 1.706zm12.006 7.045c1.74.979 3.47 1.932 5.187 2.86l.951-1.759a360.264 360.264 0 01-5.158-2.844l-.98 1.743zm12.246 6.568a309.26 309.26 0 005.32 2.651l.875-1.798a325.568 325.568 0 01-5.286-2.634l-.909 1.781zm12.475 6.018c1.85.84 3.683 1.649 5.5 2.428l.788-1.838a276.043 276.043 0 01-5.461-2.411l-.827 1.821zm12.854 5.45a243.73 243.73 0 005.546 2.102l.686-1.879a241.008 241.008 0 01-5.5-2.085l-.732 1.862zm13.047 4.694c1.936.631 3.848 1.223 5.737 1.779l.564-1.919c-1.87-.55-3.764-1.137-5.682-1.762l-.619 1.902zm13.419 3.867c1.97.492 3.913.941 5.826 1.348l.416-1.956c-1.89-.403-3.81-.846-5.759-1.332l-.483 1.94zm13.657 2.814c2.01.323 3.984.598 5.921.825l.233-1.986a139.62 139.62 0 01-5.836-.813l-.318 1.974zm13.873 1.511c2.044.109 4.041.163 5.99.162l-.001-2c-1.912.001-3.873-.052-5.882-.159l-.107 1.997zm13.965-.163a83.543 83.543 0 005.962-.709l-.309-1.976a81.565 81.565 0 01-5.819.692l.166 1.993zm13.831-2.386a60.057 60.057 0 005.733-1.885l-.721-1.865a57.96 57.96 0 01-5.543 1.821l.531 1.929zm13.009-5.367a42.986 42.986 0 005.018-3.417l-1.243-1.567a41.048 41.048 0 01-4.784 3.258l1.009 1.726zm10.812-9.102a34.707 34.707 0 003.432-5.046l-1.747-.974a32.81 32.81 0 01-3.234 4.756l1.549 1.264zm6.525-12.568c.273-.977.506-1.971.698-2.981l-1.964-.375a34.558 34.558 0 01-.66 2.817l1.926.539zm.698-2.981c.175-.92.338-1.884.489-2.891l-1.978-.297a74.24 74.24 0 01-.475 2.813l1.964.375zm1.392-10.769c.164-1.878.307-3.85.434-5.906l-1.996-.123a232.978 232.978 0 01-.43 5.856l1.992.173zm.837-13.793c.08-1.914.154-3.883.222-5.9l-1.999-.068a681.725 681.725 0 01-.222 5.884l1.999.084zm.463-13.782c.055-1.93.108-3.894.162-5.889l-1.999-.054c-.054 1.995-.107 3.958-.162 5.887l1.999.056zm.381-13.756c.056-1.942.115-3.907.179-5.89l-1.999-.065c-.064 1.987-.123 3.954-.179 5.898l1.999.057zm.457-13.747c.076-1.952.158-3.917.249-5.893l-1.998-.091a835.93 835.93 0 00-.249 5.906l1.998.078zm.649-13.739c.111-1.956.231-3.918.362-5.884l-1.995-.133a576.578 576.578 0 00-.364 5.903l1.997.114zm.944-13.71c.16-1.955.334-3.91.52-5.863l-1.99-.19a445.343 445.343 0 00-.524 5.889l1.994.164zm1.347-13.666c.227-1.953.471-3.9.731-5.838l-1.982-.267c-.262 1.95-.507 3.909-.736 5.874l1.987.231zm1.878-13.595c.315-1.942.649-3.871 1.004-5.784l-1.966-.365a257.328 257.328 0 00-1.012 5.83l1.974.319zm2.568-13.457c.428-1.922.881-3.822 1.36-5.698l-1.938-.495a192.15 192.15 0 00-1.374 5.758l1.952.435zm3.468-13.222a139.379 139.379 0 011.837-5.574l-1.886-.667a143.389 143.389 0 00-1.863 5.654l1.912.587zm4.665-12.832a99.843 99.843 0 012.459-5.308l-1.789-.895a102.13 102.13 0 00-2.508 5.414l1.838.789zm6.234-12.084a71.06 71.06 0 013.267-4.819l-1.607-1.191a73.234 73.234 0 00-3.359 4.955l1.699 1.055zm8.243-10.737a53.458 53.458 0 014.22-3.957l-1.285-1.532a55.348 55.348 0 00-4.379 4.105l1.444 1.384zm10.48-8.429a47.208 47.208 0 015.114-2.662l-.813-1.827a49.133 49.133 0 00-5.331 2.774l1.03 1.715zm12.363-5.216a51.16 51.16 0 012.852-.674l-.406-1.959a54.68 54.68 0 00-2.962.7l.516 1.933zm2.852-.674c1.037-.215 2.061-.432 3.075-.648l-.418-1.956c-1.011.216-2.031.432-3.063.645l.406 1.959zm11.239-2.361c2.055-.406 4.089-.773 6.127-1.076l-.295-1.979c-2.077.31-4.144.683-6.219 1.092l.387 1.963zm14.331-1.885a60.552 60.552 0 016.164.053l.12-1.997a62.533 62.533 0 00-6.367-.054l.083 1.998zm14.299 1.119c1.931.39 3.92.888 5.979 1.51l.578-1.915a67.752 67.752 0 00-6.162-1.555l-.395 1.96zm13.747 4.321a99.47 99.47 0 015.624 2.575l.887-1.793c-1.97-.974-3.88-1.847-5.737-2.626l-.774 1.844zm12.923 6.505c1.724 1 3.496 2.076 5.319 3.233l1.072-1.689a158.686 158.686 0 00-5.387-3.274l-1.004 1.73zm12.248 7.848a234.32 234.32 0 015.067 3.63l1.185-1.611a240.339 240.339 0 00-5.109-3.661l-1.143 1.642zm11.692 8.661a341.118 341.118 0 014.883 3.895l1.261-1.553a346.396 346.396 0 00-4.912-3.917l-1.232 1.575zm11.304 9.226a461.017 461.017 0 014.734 4.069l1.314-1.508a465.162 465.162 0 00-4.754-4.087l-1.294 1.526zm10.98 9.6c.78.702 1.568 1.413 2.361 2.135l1.346-1.48a555.719 555.719 0 00-2.37-2.142l-1.337 1.487zm2.361 2.135c.746.678 1.487 1.361 2.226 2.051l1.365-1.461a229.106 229.106 0 00-2.245-2.07l-1.346 1.48zm8.049 7.675a291.175 291.175 0 014.259 4.339l1.441-1.386a280.974 280.974 0 00-4.288-4.369l-1.412 1.416zm9.801 10.251a399.953 399.953 0 014.067 4.515l1.496-1.328a402.988 402.988 0 00-4.088-4.537l-1.475 1.35zm9.397 10.629a609.444 609.444 0 013.937 4.642l1.532-1.286a610.217 610.217 0 00-3.951-4.658l-1.518 1.302zm9.125 10.887c1.29 1.568 2.574 3.14 3.855 4.714l1.551-1.263c-1.282-1.575-2.569-3.15-3.862-4.721l-1.544 1.27zm8.969 11.025l3.831 4.747 1.557-1.256-3.832-4.747-1.556 1.256zm8.947 11.069c1.286 1.584 2.572 3.161 3.858 4.728l1.546-1.268a1258.947 1258.947 0 01-3.852-4.721l-1.552 1.261zm9.05 10.996a549.733 549.733 0 003.94 4.655l1.519-1.301a585.368 585.368 0 01-3.926-4.638l-1.533 1.284zm9.294 10.795a343.986 343.986 0 004.105 4.536l1.471-1.355a341.514 341.514 0 01-4.082-4.511l-1.494 1.33zm9.717 10.455a232.876 232.876 0 004.341 4.328l1.393-1.435a228.897 228.897 0 01-4.304-4.291l-1.43 1.398zm10.32 9.894a160.117 160.117 0 004.656 3.997l1.273-1.543a159.941 159.941 0 01-4.599-3.947l-1.33 1.493zm11.115 9.022a119.46 119.46 0 005.055 3.497l1.094-1.675a116.772 116.772 0 01-4.97-3.437l-1.179 1.615zm12.09 7.713a90.956 90.956 0 005.502 2.767l.837-1.816a89.047 89.047 0 01-5.382-2.707l-.957 1.756zm13.127 5.836a76.944 76.944 0 005.908 1.776l.498-1.937a74.68 74.68 0 01-5.754-1.73l-.652 1.891zm13.982 3.377c2.018.283 4.064.485 6.139.6l.111-1.997a71.186 71.186 0 01-5.972-.584l-.278 1.981zm14.368.603a80.436 80.436 0 006.131-.567l-.26-1.983a78.555 78.555 0 01-5.978.553l.107 1.997zm14.211-2.022a96.56 96.56 0 005.963-1.563l-.567-1.918a94.59 94.59 0 01-5.841 1.531l.445 1.95zm13.737-4.192c1.876-.713 3.775-1.49 5.696-2.331l-.802-1.832a121.86 121.86 0 01-5.604 2.293l.71 1.87zm13.059-5.824c.924-.47 1.853-.956 2.787-1.456l-.944-1.763c-.923.494-1.839.973-2.751 1.438l.908 1.781zm2.787-1.456c.905-.485 1.807-.974 2.705-1.468l-.963-1.753c-.892.49-1.788.976-2.686 1.458l.944 1.763zm9.814-5.504a302.974 302.974 0 005.233-3.142l-1.047-1.704a292.77 292.77 0 01-5.198 3.12l1.012 1.726zm12.147-7.523a301.87 301.87 0 005.088-3.397l-1.128-1.652a293.887 293.887 0 01-5.054 3.374l1.094 1.675zm11.77-8.089a313.271 313.271 0 004.932-3.637l-1.203-1.598a304.726 304.726 0 01-4.9 3.614l1.171 1.621zm11.379-8.624a319.848 319.848 0 004.767-3.863l-1.274-1.541a320.944 320.944 0 01-4.737 3.838l1.244 1.566zm10.985-9.136a330.663 330.663 0 004.586-4.065l-1.34-1.484a325.894 325.894 0 01-4.558 4.04l1.312 1.509zm10.576-9.612a327.185 327.185 0 004.396-4.249l-1.403-1.425a329.192 329.192 0 01-4.369 4.223l1.376 1.451zm10.153-10.052a350.257 350.257 0 004.212-4.425l-1.46-1.366a346.293 346.293 0 01-4.188 4.4l1.436 1.391zm9.726-10.46a355.508 355.508 0 004.034-4.598l-1.515-1.306a358.299 358.299 0 01-4.011 4.573l1.492 1.331zm9.294-10.838a381.83 381.83 0 003.855-4.76l-1.565-1.246a354.072 354.072 0 01-3.834 4.734l1.544 1.272zm8.861-11.19a384.6 384.6 0 003.675-4.911l-1.611-1.186a380.67 380.67 0 01-3.656 4.886l1.592 1.211zm8.429-11.519a385.728 385.728 0 003.492-5.05l-1.654-1.124c-1.142 1.68-2.3 3.354-3.474 5.023l1.636 1.151zm8.003-11.838a389.19 389.19 0 003.296-5.161l-1.693-1.063a402.644 402.644 0 01-3.28 5.135l1.677 1.089zm7.565-12.12a394.787 394.787 0 003.099-5.261l-1.731-1.002a401.835 401.835 0 01-3.083 5.235l1.715 1.028zm7.123-12.382c.984-1.783 1.95-3.567 2.9-5.352l-1.765-.94a413.74 413.74 0 01-2.886 5.326l1.751.966zm6.676-12.626c.921-1.82 1.824-3.639 2.71-5.458l-1.798-.876c-.881 1.81-1.78 3.62-2.697 5.431l1.785.903zm6.221-12.854a387.032 387.032 0 002.516-5.558l-1.828-.811a383.2 383.2 0 01-2.504 5.53l1.816.839zm5.756-13.069a386.875 386.875 0 002.316-5.65l-1.857-.744a382.904 382.904 0 01-2.304 5.621l1.845.773zm5.276-13.27a387.367 387.367 0 002.105-5.737l-1.883-.673a372.25 372.25 0 01-2.094 5.705l1.872.705zM745 279.572a361.428 361.428 0 001.881-5.812l-1.908-.6a344.87 344.87 0 01-1.871 5.78l1.898.632zm4.242-13.644a331.46 331.46 0 001.639-5.877l-1.931-.519a341.179 341.179 0 01-1.629 5.842l1.921.554zm3.668-13.814c.481-1.99.938-3.965 1.371-5.924l-1.953-.431a307.45 307.45 0 01-1.362 5.884l1.944.471zm3.032-13.97c.384-2.01.742-4 1.074-5.97l-1.972-.332c-.329 1.955-.685 3.93-1.067 5.926l1.965.376zm2.307-14.097c.277-2.057.523-4.087.738-6.089l-1.988-.214a228.477 228.477 0 01-.732 6.036l1.982.267zm1.452-14.17c.144-2.109.25-4.182.32-6.215l-1.999-.069a180.76 180.76 0 01-.317 6.148l1.996.136zm.398-14.404c-.035-2.07-.112-4.091-.232-6.061l-1.997.122c.119 1.939.195 3.93.229 5.972l2-.033zm-1.021-14.258a90.962 90.962 0 00-1.034-6.144l-1.959.402a89.376 89.376 0 011.011 6.009l1.982-.267zm-3.14-14.115a51.451 51.451 0 00-2.302-5.792l-1.808.856a49.448 49.448 0 012.212 5.566l1.898-.63zm-6.634-12.878c-1.358-1.712-2.847-3.208-4.47-4.467l-1.226 1.579c1.484 1.153 2.862 2.532 4.129 4.131l1.567-1.243zm-12.007-8.294a22.636 22.636 0 00-3.165-.651l-.264 1.982c.994.133 1.956.332 2.886.594l.543-1.925zm-3.165-.651a75.71 75.71 0 00-3.037-.344l-.185 1.991c.974.091 1.96.202 2.958.335l.264-1.982zm-10.99-.635a61.119 61.119 0 00-5.946.421l.24 1.986a58.949 58.949 0 015.751-.408l-.045-1.999zm-13.798 1.939a53.053 53.053 0 00-5.687 1.885l.735 1.86a51.141 51.141 0 015.473-1.814l-.521-1.931zm-12.881 5.383a55.404 55.404 0 00-5.006 3.297l1.187 1.609a53.612 53.612 0 014.826-3.178l-1.007-1.728zm-11.094 8.452a68.238 68.238 0 00-4.115 4.336l1.508 1.314a66.264 66.264 0 013.995-4.21l-1.388-1.44zm-9.018 10.596a91.66 91.66 0 00-3.276 4.981l1.706 1.045a89.01 89.01 0 013.203-4.871l-1.633-1.155zm-7.154 11.898a122.78 122.78 0 00-2.586 5.358l1.822.826a121.684 121.684 0 012.543-5.271l-1.779-.913zm-5.643 12.657a159.36 159.36 0 00-2.04 5.581l1.89.652a158.69 158.69 0 012.015-5.511l-1.865-.722zm-4.451 13.104a208.316 208.316 0 00-1.601 5.694l1.933.515a201.394 201.394 0 011.586-5.639l-1.918-.57zm-3.496 13.358a249.88 249.88 0 00-1.256 5.784l1.959.402c.394-1.92.809-3.834 1.246-5.739l-1.949-.447zm-2.732 13.535a313.746 313.746 0 00-.969 5.834l1.976.309c.302-1.931.623-3.864.963-5.796l-1.97-.347zm-2.095 13.637c-.26 1.961-.503 3.914-.728 5.855l1.987.231c.224-1.931.465-3.873.723-5.823l-1.982-.263zm-1.559 13.687c-.19 1.987-.365 3.955-.525 5.9l1.994.164c.159-1.937.332-3.896.522-5.873l-1.991-.191zm-1.1 13.75c-.13 2.005-.245 3.977-.347 5.912l1.997.105c.102-1.927.216-3.891.346-5.888l-1.996-.129zm-.7 13.761a550.92 550.92 0 00-.19 5.912l1.999.054c.051-1.904.114-3.869.19-5.891l-1.999-.075zm-.352 13.791a743.662 743.662 0 00-.058 5.924l2 .012c.011-1.852.029-3.825.058-5.908l-2-.028zm-.072 13.769l.003 2.9h2l-.003-2.902-2 .002zm.003 2.9c0 .795.015 1.764.045 2.894l2-.054a104.582 104.582 0 01-.045-2.84h-2zm.406 11.121c.106 1.886.233 3.944.384 6.16l1.995-.136c-.15-2.208-.277-4.258-.382-6.136l-1.997.112zm.985 14.228c.155 1.925.324 3.929.508 6.008l1.992-.177a757.056 757.056 0 01-.507-5.991l-1.993.16zm1.273 14.161c.196 1.976.403 4.002.623 6.075l1.989-.211c-.219-2.068-.427-4.09-.622-6.061l-1.99.197zm1.519 14.14c.233 2.014.478 4.063.734 6.143l1.985-.244c-.256-2.076-.5-4.12-.732-6.129l-1.987.23zm1.757 14.147c.268 2.019.546 4.061.835 6.125l1.981-.278a799.448 799.448 0 01-.833-6.11l-1.983.263zm1.995 14.118c.303 2.012.615 4.041.938 6.083l1.975-.312a826.738 826.738 0 01-.935-6.068l-1.978.297zm2.245 14.078c.339 2.007.689 4.025 1.048 6.051l1.969-.35c-.358-2.02-.707-4.032-1.045-6.035l-1.972.334zm2.513 14.032c.38 2.002.769 4.008 1.169 6.016l1.962-.39a645.752 645.752 0 01-1.166-5.999l-1.965.373zm2.809 13.979c.423 1.991.857 3.983 1.302 5.973l1.952-.437a584.698 584.698 0 01-1.298-5.952l-1.956.416zm3.139 13.911c.474 1.98.958 3.955 1.454 5.923l1.94-.488a512.88 512.88 0 01-1.449-5.9l-1.945.465zm3.517 13.825a429.967 429.967 0 001.63 5.867l1.923-.549a436.587 436.587 0 01-1.623-5.84l-1.93.522zm3.956 13.711c.6 1.948 1.212 3.88 1.838 5.796l1.901-.621a357.345 357.345 0 01-1.828-5.764l-1.911.589zm4.478 13.556a296.307 296.307 0 002.087 5.698l1.871-.708a287.49 287.49 0 01-2.073-5.659l-1.885.669zm5.115 13.337a223.842 223.842 0 002.392 5.553l1.826-.816a222.041 222.041 0 01-2.371-5.504l-1.847.767zm5.91 13.013a168.61 168.61 0 002.813 5.404l1.756-.956a169.722 169.722 0 01-2.779-5.34l-1.79.892zm6.931 12.497a119.273 119.273 0 003.387 5.162l1.642-1.141a117.194 117.194 0 01-3.33-5.076l-1.699 1.055zm8.293 11.662a80.95 80.95 0 004.142 4.66l1.441-1.387a78.582 78.582 0 01-4.039-4.545l-1.544 1.272zm10.208 10.246a53.77 53.77 0 004.996 3.591l1.07-1.69a51.645 51.645 0 01-4.81-3.458l-1.256 1.557zm12.371 7.388a40.479 40.479 0 005.958 1.874l.449-1.949a38.33 38.33 0 01-5.663-1.782l-.744 1.857zm14.174 2.874a42.092 42.092 0 006.231-.365l-.262-1.982c-2.021.267-3.999.38-5.936.348l-.033 1.999zm14.397-2.19a59.229 59.229 0 005.639-2.092l-.788-1.839a57.125 57.125 0 01-5.448 2.022l.597 1.909zm13.047-5.804a88.805 88.805 0 005.181-3.209l-1.109-1.664a87.153 87.153 0 01-5.064 3.137l.992 1.736zm11.84-8.033a130.476 130.476 0 004.696-3.853l-1.303-1.517a129.114 129.114 0 01-4.624 3.794l1.231 1.576zm10.844-9.435a183.688 183.688 0 004.233-4.182l-1.428-1.4a181.66 181.66 0 01-4.187 4.136l1.382 1.446zm9.995-10.303a239.661 239.661 0 003.94-4.459l-1.514-1.306a243.096 243.096 0 01-3.908 4.422l1.482 1.343zm9.121-10.647a312.862 312.862 0 003.956-4.965l-1.577-1.231a315.914 315.914 0 01-3.93 4.934l1.551 1.262zm8.772-11.285a390.023 390.023 0 003.563-4.862l-1.622-1.17a388.706 388.706 0 01-3.545 4.837l1.604 1.195zm8.386-11.69a505 505 0 001.83-2.664l-1.652-1.127a462.33 462.33 0 01-1.823 2.652l1.645 1.139zm1.83-2.664c.576-.845 1.151-1.686 1.725-2.524l-1.65-1.131-1.727 2.528 1.652 1.127zm6.298-9.157c1.149-1.657 2.294-3.3 3.436-4.929l-1.638-1.148c-1.143 1.632-2.29 3.278-3.441 4.937l1.643 1.14zm8.093-11.526a1070.49 1070.49 0 013.485-4.873l-1.623-1.168c-1.161 1.613-2.324 3.24-3.492 4.882l1.63 1.159zm8.234-11.418a894.494 894.494 0 013.55-4.818l-1.606-1.191a955.79 955.79 0 00-3.558 4.828l1.614 1.181zm8.401-11.29a725.92 725.92 0 013.632-4.76l-1.586-1.22a797.876 797.876 0 00-3.641 4.773l1.595 1.207zm8.594-11.137a684.046 684.046 0 013.733-4.697l-1.559-1.252a658.993 658.993 0 00-3.746 4.712l1.572 1.237zm8.818-10.948a561.66 561.66 0 013.857-4.625l-1.528-1.29a546.539 546.539 0 00-3.872 4.643l1.543 1.272zm9.077-10.715a459.035 459.035 0 014.005-4.538l-1.49-1.334a463.096 463.096 0 00-4.023 4.558l1.508 1.314zm9.388-10.441a374.462 374.462 0 014.166-4.41l-1.443-1.386a370.453 370.453 0 00-4.188 4.435l1.465 1.361zm9.784-10.13a310.585 310.585 0 014.298-4.195l-1.383-1.445a326.566 326.566 0 00-4.326 4.221l1.411 1.419zm10.185-9.675a256.053 256.053 0 014.489-3.967l-1.307-1.514a260.03 260.03 0 00-4.523 3.998l1.341 1.483zm10.634-9.092a213.425 213.425 0 014.762-3.723l-1.209-1.594a215.21 215.21 0 00-4.807 3.759l1.254 1.558zm11.237-8.429a174.24 174.24 0 014.958-3.321l-1.084-1.681a175.396 175.396 0 00-5.015 3.359l1.141 1.643zm11.796-7.493a144.644 144.644 0 015.276-2.89l-.923-1.774a146.22 146.22 0 00-5.35 2.931l.997 1.733zm12.467-6.364a120.68 120.68 0 015.516-2.301l-.724-1.864a124.19 124.19 0 00-5.607 2.338l.815 1.827zm13.046-4.928a107.63 107.63 0 015.76-1.612l-.485-1.94c-1.962.49-3.917 1.037-5.867 1.641l.592 1.911zm13.562-3.249c1.965-.334 3.938-.609 5.918-.827l-.218-1.988c-2.02.222-4.031.503-6.035.843l.335 1.972zm13.86-1.383c1.99-.061 3.98-.064 5.98-.009l.05-1.999c-2.04-.056-4.07-.053-6.09.009l.06 1.999zm13.93.513c1.98.204 3.96.463 5.95.779l.32-1.976c-2.03-.321-4.05-.585-6.06-.792l-.21 1.989zm13.78 2.293c1.92.437 3.85.925 5.78 1.465l.54-1.927a130.83 130.83 0 00-5.87-1.488l-.45 1.95zm13.41 3.832c1.88.642 3.77 1.331 5.67 2.068l.72-1.865c-1.92-.746-3.84-1.444-5.74-2.095l-.65 1.892zm13.05 5.141c1.79.797 3.6 1.636 5.41 2.516l.87-1.799c-1.83-.89-3.65-1.738-5.47-2.545l-.81 1.828zm12.55 6.165c1.75.936 3.5 1.909 5.27 2.919l.99-1.736a219.9 219.9 0 00-5.31-2.945l-.95 1.762zm12.13 7.005c1.7 1.049 3.41 2.131 5.13 3.248l1.09-1.676a266.54 266.54 0 00-5.16-3.274l-1.06 1.702zm11.76 7.696c.84.577 1.67 1.162 2.51 1.754l1.16-1.634c-.85-.597-1.69-1.185-2.53-1.766l-1.14 1.646zm2.41 1.671c.72.664 1.45 1.341 2.2 2.028l1.35-1.471c-.74-.687-1.47-1.362-2.19-2.025l-1.36 1.468zm8.23 7.545c1.48 1.343 3 2.716 4.56 4.117l1.33-1.488c-1.55-1.398-3.07-2.769-4.54-4.109l-1.35 1.48zm10.66 9.558c1.52 1.339 3.06 2.697 4.63 4.07l1.32-1.507c-1.57-1.37-3.11-2.725-4.62-4.062l-1.33 1.499zm10.8 9.41c1.53 1.312 3.08 2.633 4.65 3.96l1.29-1.527a848.437 848.437 0 01-4.63-3.951l-1.31 1.518zm10.92 9.209c1.57 1.299 3.15 2.6 4.75 3.902l1.26-1.551a746.882 746.882 0 01-4.73-3.891l-1.28 1.54zm11.12 9.03c1.59 1.268 3.2 2.532 4.81 3.791l1.23-1.576a483.863 483.863 0 01-4.79-3.78l-1.25 1.565zm11.29 8.782a592.09 592.09 0 004.91 3.681l1.19-1.607a457.84 457.84 0 01-4.89-3.667l-1.21 1.593zm11.52 8.499c1.67 1.197 3.34 2.38 5.02 3.546l1.14-1.641a493.218 493.218 0 01-5-3.531l-1.16 1.626zm11.78 8.157c1.71 1.139 3.42 2.258 5.12 3.354l1.08-1.683a394.066 394.066 0 01-5.09-3.335l-1.11 1.664zm12.07 7.696c1.77 1.078 3.54 2.126 5.3 3.144l1-1.732c-1.75-1.01-3.5-2.051-5.27-3.121l-1.03 1.709zm12.47 7.126c1.84.976 3.66 1.912 5.47 2.806l.88-1.792c-1.79-.885-3.59-1.813-5.41-2.779l-.94 1.765zm12.91 6.273c1.91.832 3.8 1.61 5.68 2.328l.71-1.867c-1.84-.707-3.71-1.473-5.59-2.295l-.8 1.834zm13.47 5.007c2.03.609 4.03 1.137 5.99 1.575l.44-1.952a84.679 84.679 0 01-5.85-1.539l-.58 1.916zm14.19 2.892c2.14.197 4.22.262 6.24.186l-.08-1.998c-1.92.072-3.92.01-5.98-.18l-.18 1.992zm14.53-1.047a29.187 29.187 0 005.87-2.308l-.93-1.77c-1.72.907-3.55 1.62-5.47 2.15l.53 1.928zm12.64-7.304a32.468 32.468 0 003.98-4.875l-1.66-1.111a30.51 30.51 0 01-3.73 4.571l1.41 1.415zm7.84-12.23a56.826 56.826 0 002.02-5.903l-1.93-.545a56.812 56.812 0 01-1.94 5.691l1.85.757zm3.8-13.972c.33-1.97.6-4.034.82-6.193l-1.99-.202c-.21 2.12-.48 4.142-.8 6.067l1.97.328zm1.36-14.313c.04-1.053.07-2.126.08-3.218l-2-.027c-.01 1.078-.04 2.136-.08 3.175l2 .07zm.08-3.218c.01-1.022.02-2.041.02-3.057l-2-.005c0 1.009-.01 2.02-.02 3.035l2 .027zm-.07-11.126c-.05-2.029-.13-4.046-.22-6.053l-2 .095c.1 1.992.17 3.996.22 6.01l2-.052zm-.72-14.1c-.16-2.026-.33-4.039-.53-6.042l-1.99.197c.19 1.988.37 3.987.52 5.998l2-.153zm-1.44-14.044c-.26-2.017-.54-4.022-.84-6.016l-1.97.297c.29 1.98.57 3.97.83 5.973l1.98-.254zm-2.14-13.956a283.62 283.62 0 00-1.14-5.97l-1.96.395c.4 1.965.77 3.941 1.13 5.928l1.97-.353zm-2.84-13.845c-.46-1.977-.93-3.941-1.42-5.895l-1.94.489c.49 1.941.96 3.892 1.41 5.855l1.95-.449zm-3.5-13.688a346.3 346.3 0 00-1.69-5.809l-1.92.578c.58 1.913 1.14 3.837 1.68 5.772l1.93-.541zm-4.13-13.506a342.56 342.56 0 00-1.94-5.718l-1.89.662c.66 1.883 1.3 3.778 1.93 5.683l1.9-.627zm-4.71-13.308c-.71-1.888-1.44-3.765-2.18-5.631l-1.86.738a338.1 338.1 0 012.17 5.6l1.87-.707zm-5.24-13.099c-.79-1.862-1.59-3.712-2.4-5.553l-1.83.808c.81 1.831 1.6 3.672 2.39 5.524l1.84-.779zm-5.73-12.889c-.85-1.835-1.72-3.66-2.59-5.474l-1.8.87c.87 1.805 1.73 3.621 2.58 5.448l1.81-.844zm-6.16-12.697c-.91-1.805-1.83-3.599-2.76-5.384l-1.77.923c.92 1.778 1.84 3.565 2.75 5.362l1.78-.901zm-6.53-12.506c-.96-1.775-1.93-3.54-2.9-5.296l-1.75.969c.97 1.75 1.93 3.509 2.89 5.277l1.76-.95zm-6.85-12.327c-1-1.752-2-3.495-3.01-5.229l-1.73 1.006a458.42 458.42 0 013 5.214l1.74-.991zm-7.1-12.17a683.257 683.257 0 00-3.11-5.185l-1.71 1.034c1.04 1.716 2.07 3.441 3.1 5.174l1.72-1.023zm-7.29-12.052c-1.06-1.723-2.12-3.438-3.18-5.144l-1.7 1.055c1.06 1.703 2.11 3.415 3.17 5.136l1.71-1.047zm-7.44-11.974c-1.07-1.708-2.14-3.407-3.2-5.098l-1.7 1.066c1.07 1.69 2.13 3.388 3.2 5.093l1.7-1.061zm-7.5-11.915c-1.08-1.709-2.15-3.41-3.22-5.103l-1.69 1.066c1.07 1.694 2.14 3.395 3.22 5.104l1.69-1.067zm-7.49-11.9c-1.07-1.718-2.14-3.428-3.2-5.131l-1.7 1.055c1.06 1.705 2.13 3.418 3.21 5.137l1.69-1.061zm-7.42-11.975c-1.05-1.717-2.08-3.428-3.11-5.133l-1.71 1.031c1.02 1.709 2.07 3.424 3.12 5.145l1.7-1.043zm-7.21-12.052a607.97 607.97 0 01-3.02-5.225l-1.74.99c1 1.742 2 3.49 3.03 5.245l1.73-1.01zm-6.92-12.23a312.5 312.5 0 01-2.83-5.294l-1.78.928c.93 1.769 1.88 3.543 2.85 5.323l1.76-.957zm-6.47-12.453c-.89-1.815-1.75-3.626-2.59-5.432l-1.81.84c.84 1.82 1.71 3.645 2.61 5.473l1.79-.881zm-5.82-12.754a193.5 193.5 0 01-2.23-5.548l-1.87.717c.72 1.866 1.47 3.734 2.25 5.605l1.85-.774zm-4.93-13.078c-.64-1.916-1.23-3.829-1.78-5.739l-1.92.552c.56 1.937 1.16 3.875 1.8 5.816l1.9-.629zm-3.76-13.471c-.21-.972-.42-1.942-.61-2.913l-1.96.388c.19.987.4 1.974.62 2.961l1.95-.436zm-.61-2.913c-.19-.969-.37-1.937-.53-2.903l-1.97.335c.16.984.34 1.97.54 2.956l1.96-.388zm-1.56-10.662a97.102 97.102 0 01-.38-5.855l-2 .07c.07 1.98.2 3.972.39 5.973l1.99-.188zm-.34-13.67c.1-1.967.26-3.915.48-5.842l-1.99-.228a90.293 90.293 0 00-.48 5.973l1.99.096zm1.73-13.541c.41-1.92.88-3.813 1.43-5.676l-1.92-.56a75.517 75.517 0 00-1.46 5.82l1.95.416zm4-13.03a71.968 71.968 0 012.43-5.31l-1.78-.91a71.917 71.917 0 00-2.5 5.461l1.85.76zm6.36-12.032a68.715 68.715 0 013.43-4.72l-1.56-1.246a72.411 72.411 0 00-3.54 4.86l1.67 1.106zm8.62-10.513a71.267 71.267 0 014.31-3.937l-1.28-1.533a71.301 71.301 0 00-4.44 4.052l1.41 1.418zm10.55-8.604a72.003 72.003 0 014.98-3.053l-.98-1.744a76.664 76.664 0 00-5.11 3.133l1.11 1.664zm11.96-6.53a87.918 87.918 0 015.44-2.175l-.68-1.88a87.183 87.183 0 00-5.56 2.224l.8 1.83zm12.89-4.527c1.86-.504 3.76-.965 5.72-1.38l-.42-1.956c-1.99.422-3.93.891-5.83 1.406l.53 1.93zM1224.63 15c1.9-.27 3.85-.498 5.84-.686l-.19-1.99c-2.02.19-4 .422-5.93.696l.28 1.98zm13.65-1.194c1.92-.072 3.88-.107 5.87-.104l.01-2c-2.02-.003-4.01.032-5.96.105l.08 1.999zm13.75.098c1.92.094 3.88.221 5.86.383l.17-1.993c-2.01-.164-3.99-.293-5.94-.388l-.09 1.998zm13.66 1.177c1.95.236 3.91.504 5.91.803l.3-1.978c-2.02-.302-4-.572-5.96-.81l-.25 1.985zm13.63 2.094c1.9.352 3.83.732 5.79 1.14l.4-1.958c-1.96-.411-3.91-.794-5.83-1.148l-.36 1.966zm13.5 2.873c1.87.448 3.77.922 5.68 1.422l.5-1.935c-1.92-.503-3.83-.98-5.71-1.432l-.47 1.945zm13.35 3.533c1.84.532 3.7 1.086 5.58 1.664l.59-1.911c-1.89-.582-3.76-1.14-5.61-1.675l-.56 1.922zm13.16 4.093c1.82.606 3.66 1.234 5.51 1.883l.66-1.887c-1.86-.653-3.71-1.284-5.54-1.894l-.63 1.898zm13.01 4.594c1.8.67 3.61 1.36 5.44 2.07l.73-1.864c-1.84-.713-3.66-1.406-5.47-2.08l-.7 1.874zm12.83 5.018c1.79.731 3.59 1.481 5.4 2.25l.78-1.841c-1.82-.772-3.63-1.525-5.42-2.26l-.76 1.851zm12.66 5.396c.92.406 1.84.816 2.76 1.23l.82-1.823c-.93-.417-1.85-.829-2.77-1.236l-.81 1.829zm2.76 1.23l2.86 1.288.82-1.824-2.86-1.287-.82 1.824zm10.38 4.66c1.85.831 3.69 1.655 5.52 2.47l.81-1.825c-1.82-.816-3.66-1.639-5.52-2.47l-.81 1.825zm13.02 5.82l5.61 2.495.81-1.829c-1.85-.822-3.72-1.653-5.6-2.493l-.82 1.827zm12.99 5.76c1.92.847 3.82 1.684 5.7 2.511l.8-1.83c-1.88-.827-3.78-1.664-5.69-2.511l-.81 1.83zm13.12 5.762c1.9.83 3.78 1.65 5.64 2.458l.8-1.835c-1.86-.807-3.74-1.626-5.64-2.456l-.8 1.833zm13.15 5.705c1.88.808 3.74 1.604 5.58 2.388l.78-1.84c-1.83-.783-3.69-1.578-5.57-2.385l-.79 1.837zm13.17 5.61c1.87.79 3.72 1.565 5.54 2.326l.77-1.846c-1.82-.76-3.66-1.534-5.53-2.322l-.78 1.843zm13.2 5.498c1.88.773 3.74 1.53 5.57 2.27l.75-1.853c-1.83-.74-3.68-1.496-5.56-2.267l-.76 1.85zm13.26 5.352c1.9.752 3.77 1.487 5.62 2.204l.72-1.865c-1.84-.715-3.71-1.448-5.6-2.199l-.74 1.86zm13.33 5.153c1.94.73 3.85 1.438 5.72 2.125l.69-1.878c-1.87-.685-3.77-1.391-5.71-2.12l-.7 1.873zm13.4 4.873c1.99.698 3.95 1.367 5.86 2.01l.64-1.896c-1.91-.64-3.86-1.307-5.84-2.002l-.66 1.888zm13.62 4.524c2 .624 3.95 1.215 5.86 1.774l.56-1.92a341.86 341.86 0 01-5.83-1.763l-.59 1.909zm13.79 3.96c2.05.529 4.04 1.016 5.98 1.459l.45-1.949c-1.93-.44-3.9-.922-5.93-1.446l-.5 1.936zm14.03 3.1c2.08.37 4.1.684 6.07.94l.25-1.983c-1.93-.252-3.92-.561-5.97-.926l-.35 1.969zm14.29 1.695c2.14.105 4.2.129 6.19.071l-.06-1.999c-1.93.056-3.94.033-6.03-.07l-.1 1.998zm14.44-.706c2.11-.351 4.13-.818 6.07-1.4l-.58-1.916a46.88 46.88 0 01-5.82 1.343l.33 1.973zm13.79-4.555a42.26 42.26 0 005.3-3.331l-1.19-1.61a40.037 40.037 0 01-5.04 3.173l.93 1.768zm11.52-8.853a56.704 56.704 0 004.03-4.733l-1.58-1.218a56.071 56.071 0 01-3.9 4.573l1.45 1.377zm8.69-11.575a101.01 101.01 0 003.05-5.372l-1.76-.938c-.98 1.842-1.98 3.598-3 5.269l1.71 1.04zm6.7-12.779c.83-1.807 1.65-3.677 2.47-5.61l-1.84-.778c-.81 1.916-1.62 3.767-2.44 5.553l1.81.835zm5.54-13.225c.71-1.855 1.43-3.759 2.15-5.712l-1.88-.69a343.63 343.63 0 01-2.14 5.681l1.87.72zm4.9-13.411c.34-.974.68-1.958 1.03-2.953l-1.9-.652c-.34.993-.68 1.974-1.02 2.945l1.89.66zm1.03-2.953c.32-.943.66-1.869 1-2.78l-1.86-.714c-.36.932-.7 1.88-1.04 2.842l1.9.652zm4.13-9.915a71.33 71.33 0 012.84-5.122l-1.71-1.043a68.25 68.25 0 00-2.91 5.27l1.78.895zm7.29-11.484a54.583 54.583 0 013.88-4.357l-1.43-1.407a56.04 56.04 0 00-4.01 4.514l1.56 1.25zm9.72-9.44a49.668 49.668 0 014.86-3.194l-1-1.732a51.04 51.04 0 00-5.05 3.321l1.19 1.605zm11.84-6.536a53.854 53.854 0 015.53-1.803l-.51-1.932a55.088 55.088 0 00-5.74 1.87l.72 1.865zm13.15-3.293a65.58 65.58 0 015.82-.481l-.07-1.998c-2.04.078-4.04.243-6 .495l.25 1.984zm13.62-.36c1.91.126 3.85.325 5.83.594l.27-1.981a87.137 87.137 0 00-5.96-.61l-.14 1.996zm13.55 1.975c1.87.412 3.77.885 5.7 1.418l.54-1.928c-1.97-.542-3.9-1.023-5.81-1.443l-.43 1.953zm13.18 3.743c1.82.629 3.67 1.308 5.53 2.038l.73-1.862c-1.89-.74-3.76-1.429-5.61-2.066l-.65 1.89zm12.76 5.087c1.76.794 3.54 1.633 5.34 2.515l.88-1.795c-1.81-.892-3.61-1.74-5.4-2.544l-.82 1.824zm12.32 6.127c1.71.926 3.43 1.89 5.16 2.893l1-1.731a225.99 225.99 0 00-5.2-2.92l-.96 1.758zm11.9 6.952c1.66 1.034 3.32 2.1 5 3.202l1.09-1.67c-1.68-1.11-3.36-2.186-5.03-3.228l-1.06 1.696zm11.52 7.63c1.58 1.11 3.18 2.25 4.78 3.421l1.18-1.616a272.112 272.112 0 00-4.82-3.445l-1.14 1.64zm11.09 8.145c.79.603 1.57 1.214 2.36 1.832l1.24-1.575c-.8-.621-1.59-1.236-2.38-1.843l-1.22 1.586zm2.36 1.832c.83.648 1.66 1.293 2.47 1.935l1.24-1.573c-.82-.643-1.65-1.289-2.47-1.937l-1.24 1.575zm8.94 7.023c1.65 1.3 3.28 2.587 4.89 3.86l1.24-1.568c-1.61-1.274-3.24-2.562-4.89-3.863l-1.24 1.57zm11.37 8.992l4.83 3.83 1.24-1.568-4.83-3.83-1.24 1.568zm11.29 8.952c1.66 1.309 3.29 2.597 4.9 3.865l1.23-1.57c-1.6-1.268-3.23-2.555-4.89-3.863l-1.24 1.568zm11.4 8.97c1.66 1.29 3.29 2.558 4.89 3.8l1.22-1.583c-1.6-1.24-3.23-2.504-4.88-3.794l-1.23 1.576zm11.46 8.829c1.67 1.269 3.32 2.506 4.94 3.71l1.19-1.604c-1.62-1.2-3.26-2.434-4.93-3.7l-1.2 1.594zm11.63 8.604c1.72 1.232 3.4 2.422 5.06 3.568l1.14-1.645c-1.65-1.14-3.33-2.322-5.03-3.548l-1.17 1.625zm11.98 8.199c1.79 1.159 3.55 2.26 5.27 3.3l1.04-1.714a190.823 190.823 0 01-5.23-3.266l-1.08 1.68zm12.51 7.396c1.91 1.004 3.78 1.92 5.61 2.745l.82-1.823a98.588 98.588 0 01-5.49-2.692l-.94 1.77zm13.43 5.778a50.63 50.63 0 006.09 1.554l.37-1.966c-1.9-.356-3.85-.855-5.86-1.494l-.6 1.906zm14.53 2.211c2.16-.091 4.27-.394 6.33-.922l-.5-1.938c-1.92.492-3.89.777-5.91.861l.08 1.999zm14.18-4.161a37.733 37.733 0 005.21-3.659l-1.28-1.538a35.362 35.362 0 01-4.93 3.467l1 1.73zm11.19-9.585a73.653 73.653 0 003.89-4.942l-1.63-1.17a68.115 68.115 0 01-3.78 4.804l1.52 1.308zm8.44-11.875c1.03-1.716 2.05-3.524 3.08-5.426l-1.76-.948a134.316 134.316 0 01-3.04 5.344l1.72 1.03zm6.83-12.835c.45-.942.9-1.903 1.35-2.883l-1.82-.835c-.44.971-.89 1.923-1.34 2.855l1.81.863z" fill="#FF6565"/></svg>