<svg width="34" height="41" viewBox="0 0 34 41" fill="none" xmlns="http://www.w3.org/2000/svg">
<path d="M28.4016 28.4015L16.6373 40.1659L4.87287 28.4015C2.54613 26.0747 0.961608 23.1102 0.319673 19.8829C-0.322263 16.6556 0.00722206 13.3104 1.26646 10.2704C2.5257 7.23035 4.65814 4.63198 7.39412 2.80387C10.1301 0.975752 13.3467 0 16.6373 0C19.9278 0 23.1444 0.975752 25.8804 2.80387C28.6164 4.63198 30.7488 7.23035 32.008 10.2704C33.2673 13.3104 33.5968 16.6556 32.9548 19.8829C32.3129 23.1102 30.7284 26.0747 28.4016 28.4015Z" fill="#E08F40"/>
<path fill-rule="evenodd" clip-rule="evenodd" d="M12.8875 7.00602C12.4419 7.05034 12.0658 7.15489 11.6938 7.33781C11.0227 7.66774 10.5126 8.1737 10.1806 8.83843C9.96091 9.27837 9.85575 9.70101 9.84133 10.2019C9.82491 10.7718 9.93192 11.2626 10.1818 11.7638C10.8372 13.078 12.2734 13.8005 13.7397 13.5535C13.9185 13.5234 14.1496 13.4622 14.3205 13.3997C14.4826 13.3404 14.7902 13.1909 14.9313 13.1028C15.3413 12.8468 15.7359 12.4555 15.9941 12.0489C16.0829 11.909 16.2337 11.604 16.2935 11.4432C16.5573 10.7339 16.5644 9.93322 16.3132 9.2133C15.9564 8.19068 15.1056 7.4011 14.0518 7.11444C13.8792 7.06749 13.6726 7.02938 13.4875 7.01034C13.377 6.99898 12.9866 6.99616 12.8875 7.00602ZM24.6297 9.50051C24.3854 9.56625 24.1956 9.72069 24.0875 9.94163C23.9679 10.1861 23.9759 10.4633 24.1094 10.704C24.1674 10.8084 24.3197 10.9594 24.425 11.0169C24.513 11.0649 24.654 11.1121 24.7169 11.1145C24.7618 11.1163 24.6707 11.1289 24.4634 11.1496C23.6798 11.2278 22.8917 11.6304 22.3602 12.2242C21.8316 12.8148 21.5499 13.4938 21.5047 14.2862L21.4963 14.435H21.0794H20.6625V14.8441V15.2531H24.8313H29V14.8441V14.435H28.5813H28.1625V14.3327C28.1625 14.0738 28.0957 13.7036 27.9933 13.3953C27.8324 12.9105 27.5552 12.4673 27.1821 12.0979C26.9975 11.9151 26.8841 11.8233 26.6589 11.6742C26.1799 11.3571 25.6507 11.1816 25.0188 11.1301L24.9188 11.122L25.0063 11.1044C25.1142 11.0826 25.2731 11.0076 25.3563 10.939C25.5644 10.7675 25.6737 10.5199 25.6591 10.2527C25.6472 10.0356 25.5739 9.87325 25.4183 9.71893C25.2557 9.55764 25.0967 9.48974 24.8625 9.48156C24.7477 9.47756 24.7008 9.48137 24.6297 9.50051ZM10.2188 14.4308C9.8898 14.438 9.22993 14.4799 9.05313 14.5047L9 14.5122V20.2561V26H13.4125H17.8249L17.8281 22.5276L17.8313 19.0552L18.9373 20.3925C19.5456 21.128 20.0716 21.7597 20.1061 21.7962C20.2019 21.8979 20.3509 22.0027 20.5046 22.0768C20.657 22.1501 20.7498 22.1776 20.9044 22.1951C21.2125 22.2299 21.59 22.0909 21.8524 21.8458C21.9208 21.782 21.9648 21.7021 22.9616 19.8332C24.1113 17.6776 24.0103 17.848 24.2103 17.7281C24.4124 17.607 24.6513 17.5132 25.3688 17.2735C25.63 17.1862 25.9141 17.0898 26 17.0592C26.8626 16.7524 27.2723 16.4717 27.3227 16.1534L27.3337 16.0835L24.8329 16.0867L22.3321 16.0898L21.6701 17.5312C21.1474 18.6692 21.0049 18.9693 20.9931 18.9567C20.9849 18.9479 20.3467 18.0204 19.575 16.8955C18.8033 15.7706 18.1571 14.8374 18.1391 14.8217C18.033 14.7293 17.7396 14.6254 17.4188 14.5667C17.005 14.4909 16.1369 14.4264 15.6764 14.4372L15.5091 14.4412L14.4115 18.6991C13.8077 21.0409 13.2815 23.0818 13.2419 23.2345C13.191 23.4312 13.1671 23.5052 13.16 23.4886C13.1545 23.4757 12.6267 21.4351 11.9872 18.9539C11.3477 16.4728 10.8232 14.4418 10.8216 14.4406C10.8147 14.4353 10.3549 14.4278 10.2188 14.4308Z" fill="white"/>
</svg>