<svg width="34" height="41" viewBox="0 0 34 41" fill="none" xmlns="http://www.w3.org/2000/svg">
<path d="M28.4016 28.4015L16.6373 40.1659L4.87287 28.4015C2.54613 26.0747 0.961608 23.1102 0.319673 19.8829C-0.322263 16.6556 0.00722206 13.3104 1.26646 10.2704C2.5257 7.23035 4.65814 4.63198 7.39412 2.80387C10.1301 0.975752 13.3467 0 16.6373 0C19.9278 0 23.1444 0.975752 25.8804 2.80387C28.6164 4.63198 30.7488 7.23035 32.008 10.2704C33.2673 13.3104 33.5968 16.6556 32.9548 19.8829C32.3129 23.1102 30.7284 26.0747 28.4016 28.4015Z" fill="#E08F40"/>
<path fill-rule="evenodd" clip-rule="evenodd" d="M9.51389 11.1498C9.5349 16.454 9.53672 16.4948 9.78429 17.2497C9.98801 17.8709 10.1684 18.2753 10.4416 18.7235C11.3622 20.2338 12.865 21.2861 14.6201 21.6494C15.0289 21.734 15.2833 21.7553 15.885 21.7555C16.4194 21.7557 16.7116 21.7353 17.0003 21.6775C18.754 21.3267 20.1744 20.3925 21.1421 18.9533C21.432 18.5221 21.6983 17.9927 21.9011 17.4444C21.9427 17.332 21.9779 17.238 21.9794 17.2356C21.9809 17.2331 22.109 17.2217 22.264 17.2101C23.0615 17.1503 23.6969 16.9439 24.2886 16.5523C24.8638 16.1715 25.3017 15.6705 25.6402 15.0058C25.9296 14.4375 25.9993 14.0873 26 13.1993C26.0004 12.7055 25.9787 12.5302 25.8803 12.2283C25.5207 11.1253 24.8125 10.2974 23.8216 9.82157C23.4282 9.6327 23.0093 9.5116 22.5766 9.46165C22.2018 9.4184 22.2344 9.42821 22.2323 9.35778C22.2312 9.32323 22.229 9.0036 22.2274 8.64748L22.2244 8H18.1938H14.1632V9.80691V11.6138L14.7551 12.1022C15.0806 12.3708 15.4681 12.6894 15.616 12.8102L15.885 13.0297V15.2055V17.3813L15.7791 17.4539C15.6736 17.5262 15.672 17.5266 15.4025 17.543C15.2536 17.552 14.3352 17.5598 13.3616 17.5603L11.5915 17.5613L11.4784 17.4499L11.3653 17.3386L11.3661 15.1862L11.367 13.0338L11.5007 12.9267C11.5743 12.8678 11.9613 12.5527 12.3608 12.2265L13.0871 11.6334V9.8167V8H11.2943H9.50141L9.51389 11.1498ZM22.7527 11.2896C23.4034 11.5028 23.8495 11.92 24.1283 12.5762C24.2254 12.8045 24.2463 12.9641 24.234 13.3843C24.2212 13.819 24.1788 13.9938 24.0054 14.3254C23.7065 14.8972 22.9782 15.3946 22.3836 15.433L22.2146 15.4439L22.2182 13.4696C22.2201 12.3838 22.2223 11.4307 22.2231 11.3515L22.2244 11.2077L22.3956 11.2182C22.5113 11.2253 22.627 11.2484 22.7527 11.2896ZM13.4041 12.3436C13.2018 12.4442 13.1009 12.6057 13.1009 12.8289C13.1009 13.1365 13.3208 13.3606 13.6252 13.3635C13.9444 13.3666 14.165 13.1431 14.1655 12.8163C14.1659 12.592 14.0585 12.4308 13.8417 12.3304C13.697 12.2633 13.557 12.2676 13.4041 12.3436ZM9.47233 22.5027C8.66254 22.5054 8 22.5112 8 22.5155C8 22.5587 8.7219 23.728 9.12635 24.3399C9.36112 24.695 9.43623 24.7666 9.71671 24.9028L9.91704 25L15.293 24.9998C21.519 24.9996 21.8928 24.9923 22.1405 24.8666C22.354 24.7581 22.569 24.4564 23.3843 23.1208C23.5674 22.821 23.7291 22.5617 23.7437 22.5448C23.7582 22.5279 23.7639 22.5077 23.7562 22.5001C23.7437 22.4877 13.3285 22.4896 9.47233 22.5027Z" fill="white"/>
</svg>
