<svg width="34" height="41" viewBox="0 0 34 41" fill="none" xmlns="http://www.w3.org/2000/svg">
<path d="M28.4016 28.4015L16.6373 40.1659L4.87287 28.4015C2.54613 26.0747 0.961608 23.1102 0.319673 19.8829C-0.322263 16.6556 0.00722206 13.3104 1.26646 10.2704C2.5257 7.23035 4.65814 4.63198 7.39412 2.80387C10.1301 0.975752 13.3467 0 16.6373 0C19.9278 0 23.1444 0.975752 25.8804 2.80387C28.6164 4.63198 30.7488 7.23035 32.008 10.2704C33.2673 13.3104 33.5968 16.6556 32.9548 19.8829C32.3129 23.1102 30.7284 26.0747 28.4016 28.4015Z" fill="#5A9D32"/>
<path fill-rule="evenodd" clip-rule="evenodd" d="M11.4056 6.41894C10.4602 7.66762 10.0583 8.19078 8.67415 9.97434C8.15817 10.6392 6.98213 12.1785 5.93212 13.5633C4.80494 15.0499 4.77815 15.2355 5.68212 15.2962C6.15314 15.328 6.22006 15.2964 6.53998 14.8903C6.9083 14.423 8.57445 12.2133 10.7198 9.34727C11.436 8.39049 12.1272 7.4903 12.2559 7.34673C12.7095 6.84073 12.9155 6.97654 14.1022 8.56445C14.71 9.37765 15.8044 10.8259 16.5341 11.7827C17.2639 12.7395 18.157 13.9267 18.5189 14.421L19.1769 15.3197L19.7519 15.2908C20.8609 15.2351 21.3241 15.9433 13.4372 5.63612C13.0182 5.08849 12.9139 5.00244 12.6667 5C12.5635 4.99907 12.004 5.62846 11.4056 6.41894ZM12.2007 8.99332C11.9265 9.35562 11.1561 10.3663 10.4885 11.2393C9.82099 12.1122 8.69554 13.5935 7.98741 14.5311L6.70005 16.2357V18.3872V20.5387H8.36746H10.0349V18.1536C10.0349 16.7313 10.0829 15.678 10.1539 15.5442C10.2658 15.3335 10.4177 15.3199 12.6608 15.3199C14.3646 15.3199 15.0882 15.3598 15.1866 15.4591C15.2853 15.5586 15.3246 16.3019 15.3246 18.0685V20.5387H16.992H18.6594V18.3504V16.1622L16.7452 13.6245C14.6893 10.899 12.9348 8.59762 12.7891 8.43502C12.7397 8.37982 12.4748 8.63102 12.2007 8.99332ZM13.6173 11.214C14.1084 11.4669 14.4452 12.1273 14.43 12.8068C14.4151 13.4628 14.2005 13.8356 13.6008 14.2471C12.5613 14.9607 10.9548 14.0795 10.9548 12.7955C10.9548 11.3872 12.3476 10.56 13.6173 11.214ZM24.8746 11.2898C24.2906 11.9735 22.2243 14.8085 22.2243 14.9262C22.2243 15.1701 22.5124 15.3056 23.1083 15.3419L23.698 15.3779L22.7286 16.6275C21.9001 17.6957 21.7769 17.9104 21.8809 18.1062C21.9791 18.2914 22.1227 18.3352 22.6308 18.3352C22.9764 18.3352 23.2589 18.3743 23.2585 18.4222C23.2582 18.4701 22.8442 19.0289 22.3386 19.6639C21.4568 20.7717 21.2793 21.1337 21.5387 21.2952C21.6042 21.3361 22.1734 21.3654 22.8036 21.3603L23.9492 21.351V22.2785V23.2061H21.7643H19.5794V22.4755C19.5794 22.0618 19.5195 21.6844 19.4414 21.6057C19.3372 21.5006 17.6942 21.467 12.743 21.4682C9.13482 21.4693 6.12071 21.5098 6.04504 21.5582C5.96822 21.6075 5.89198 21.9778 5.87255 22.3966C5.83874 23.1226 5.8269 23.1486 5.50491 23.2054C5.07622 23.281 4.8744 23.5819 5.08254 23.8348C5.21961 24.0012 6.37576 24.0162 17.0928 23.9895L28.9514 23.9599V23.612V23.2641L27.7105 23.2312L26.4695 23.1981L26.5031 22.3034L26.5365 21.4085L27.6222 21.3835C28.2192 21.3697 28.7755 21.3322 28.8584 21.3001C29.1754 21.1774 28.9773 20.752 28.0899 19.6502C27.5844 19.0226 27.1704 18.4726 27.1699 18.428C27.1693 18.3833 27.4612 18.3312 27.8183 18.312C28.8743 18.2554 28.8652 18.11 27.7142 16.6395L26.7266 15.3779L27.318 15.3419C27.9193 15.3054 28.204 15.1703 28.204 14.9214C28.204 14.7727 25.6143 11.2592 25.4004 11.1176C25.1973 10.9833 25.1129 11.0109 24.8746 11.2898ZM12.2658 12.0454C12.093 12.1617 11.8748 12.5964 11.8748 12.8242C11.8748 13.1106 12.4044 13.5803 12.7276 13.5803C13.3945 13.5803 13.7646 12.5154 13.2291 12.1372C12.9602 11.9473 12.4795 11.9015 12.2658 12.0454ZM11.0698 18.3932V20.5387H12.7372H14.4047V18.3932V16.2477H12.7372H11.0698V18.3932Z" fill="white"/>
</svg>