<svg width="34" height="41" viewBox="0 0 34 41" fill="none" xmlns="http://www.w3.org/2000/svg">
<path d="M28.4016 28.4015L16.6373 40.1659L4.87287 28.4015C2.54613 26.0747 0.961608 23.1102 0.319673 19.8829C-0.322263 16.6556 0.00722206 13.3104 1.26646 10.2704C2.5257 7.23035 4.65814 4.63198 7.39412 2.80387C10.1301 0.975752 13.3467 0 16.6373 0C19.9278 0 23.1444 0.975752 25.8804 2.80387C28.6164 4.63198 30.7488 7.23035 32.008 10.2704C33.2673 13.3104 33.5968 16.6556 32.9548 19.8829C32.3129 23.1102 30.7284 26.0747 28.4016 28.4015Z" fill="#5A9D32"/>
<path fill-rule="evenodd" clip-rule="evenodd" d="M11.1886 8.59026C10.997 8.67053 10.902 8.75719 10.8057 8.93945C10.7294 9.08395 10.7263 9.24743 10.7263 13.2511V17.4125L8 20.3248L8.02309 24.5L8.13558 24.6642C8.20331 24.763 8.32112 24.8625 8.43172 24.9142C8.61445 24.9996 8.63306 25 12.1855 25H15.7556V22.822C15.7556 21.0062 15.7655 20.631 15.8151 20.5655C15.87 20.4928 15.9399 20.486 16.7454 20.4744C17.2244 20.4675 17.6584 20.4721 17.7098 20.4846C17.9439 20.5413 17.935 20.4493 17.935 22.8172V25H20.1474C22.3591 25 22.3599 25 22.5444 24.9089C22.6459 24.8588 22.7866 24.7479 22.8571 24.6623L22.9853 24.5068L22.9973 16.8706C23.0038 12.6708 22.9982 9.17494 22.9847 9.10212C22.9528 8.92982 22.7367 8.69469 22.5246 8.60168C22.3648 8.53157 22.0875 8.52801 16.8453 8.52866C12.0314 8.52927 11.3157 8.53708 11.1886 8.59026ZM14.8336 11.6392V13.4275L14.6234 13.6305L13.6821 13.6182C12.8931 13.6079 12.7302 13.5956 12.6749 13.5422C12.6188 13.4879 12.6091 13.3394 12.6091 12.5391C12.6091 12.0225 12.6211 11.5809 12.6359 11.5578C12.6954 11.4648 12.8806 11.4455 13.7353 11.443L14.6279 11.4405L14.8336 11.6392ZM17.8225 11.487C17.8729 11.5126 17.9279 11.5536 17.9449 11.5781C17.9618 11.6026 17.9759 12.0357 17.9763 12.5406C17.977 13.528 17.9713 13.5551 17.7519 13.6082C17.7006 13.6207 17.2571 13.6253 16.7665 13.6184C15.9401 13.6069 15.8701 13.6002 15.8151 13.5274C15.7679 13.4651 15.7556 13.2596 15.7556 12.5333C15.7556 11.5978 15.7675 11.5223 15.9233 11.4686C16.0538 11.4235 17.7296 11.4398 17.8225 11.487ZM21.051 11.5162C21.1118 11.5651 21.1202 11.6889 21.1202 12.5333C21.1202 13.3777 21.1118 13.5016 21.051 13.5504C20.9984 13.5926 20.7707 13.6089 20.0996 13.6184C19.6144 13.6253 19.1753 13.6207 19.1239 13.6082C18.9046 13.5551 18.8989 13.528 18.8996 12.5406C18.9 12.0357 18.9141 11.6029 18.931 11.5787C19.0179 11.4547 19.1412 11.4407 20.0557 11.4506C20.767 11.4584 20.9979 11.4736 21.051 11.5162ZM14.7684 14.6066C14.8227 14.6815 14.8336 14.8477 14.8336 15.5983C14.8336 16.446 14.8286 16.5049 14.7498 16.581C14.6709 16.6571 14.6101 16.6619 13.7158 16.6619C12.8905 16.6619 12.7555 16.6531 12.689 16.5949C12.6188 16.5336 12.6123 16.4464 12.6123 15.5648C12.6123 14.6902 12.6191 14.5979 12.6857 14.5604C12.7296 14.5357 13.1491 14.5186 13.7311 14.5179C14.6888 14.5167 14.7041 14.518 14.7684 14.6066ZM17.9003 14.5837C17.9703 14.6448 17.9769 14.7309 17.9769 15.5753C17.9769 16.446 17.972 16.5047 17.8931 16.581C17.8143 16.657 17.7534 16.6619 16.8756 16.6619C16.0984 16.6619 15.9263 16.6513 15.8488 16.5989C15.7571 16.5368 15.7556 16.5216 15.7556 15.5899C15.7556 14.7838 15.7654 14.6345 15.8215 14.5803C15.8776 14.5261 16.0313 14.5167 16.8555 14.5167C17.6975 14.5167 17.8336 14.5254 17.9003 14.5837ZM21.0544 14.5803C21.1105 14.6345 21.1202 14.7838 21.1202 15.5899C21.1202 16.5216 21.1188 16.5368 21.0271 16.5989C20.9495 16.6513 20.7775 16.6619 20.0003 16.6619C19.1225 16.6619 19.0616 16.657 18.9828 16.581C18.9039 16.5048 18.899 16.446 18.899 15.5824C18.899 14.7853 18.9081 14.655 18.9683 14.5907C19.0317 14.523 19.1213 14.5167 20.0131 14.5167C20.844 14.5167 20.9983 14.5261 21.0544 14.5803ZM14.7684 17.6828C14.8227 17.7577 14.8336 17.9239 14.8336 18.6745C14.8336 19.5222 14.8286 19.581 14.7498 19.6571C14.6709 19.7334 14.6101 19.7381 13.7085 19.7381C12.8423 19.7381 12.7446 19.7312 12.6832 19.6658C12.6257 19.6043 12.615 19.4684 12.6123 18.7652C12.6106 18.3096 12.6099 17.8881 12.6107 17.8285C12.614 17.6011 12.653 17.5929 13.7236 17.5929C14.6883 17.5929 14.7041 17.5942 14.7684 17.6828ZM17.9003 17.6598C17.9703 17.721 17.9769 17.8071 17.9769 18.6515C17.9769 19.5222 17.972 19.5809 17.8931 19.6571C17.8142 19.7333 17.7534 19.7381 16.8591 19.7381C16.0338 19.7381 15.8989 19.7293 15.8323 19.6711C15.7623 19.6099 15.7556 19.5237 15.7556 18.6725C15.7556 17.8624 15.7647 17.7312 15.825 17.6669C15.8884 17.5993 15.9777 17.5929 16.859 17.5929C17.6978 17.5929 17.8336 17.6016 17.9003 17.6598ZM21.0436 17.6598C21.1136 17.721 21.1202 17.8073 21.1202 18.6584C21.1202 19.4685 21.1112 19.5997 21.0509 19.6641C20.9875 19.7317 20.8984 19.7381 20.0241 19.7381C19.1225 19.7381 19.0617 19.7334 18.9828 19.6571C18.9039 19.581 18.899 19.5222 18.899 18.6586C18.899 17.8615 18.9081 17.7312 18.9683 17.6669C19.0317 17.5993 19.121 17.5929 20.0023 17.5929C20.8411 17.5929 20.9769 17.6016 21.0436 17.6598ZM14.7498 20.7095C14.8286 20.7856 14.8336 20.8444 14.8336 21.6922C14.8336 22.4428 14.8227 22.6089 14.7684 22.6838C14.7041 22.7724 14.6883 22.7738 13.7236 22.7738C12.889 22.7738 12.7343 22.7644 12.6782 22.7102C12.6221 22.6561 12.6123 22.5076 12.6123 21.7116C12.6123 20.8984 12.6214 20.767 12.6817 20.7026C12.745 20.635 12.8342 20.6286 13.7085 20.6286C14.6101 20.6286 14.6709 20.6333 14.7498 20.7095ZM21.0436 20.6956C21.1136 20.7568 21.1202 20.843 21.1202 21.6941C21.1202 22.5042 21.1112 22.6354 21.0509 22.6998C20.9875 22.7674 20.8982 22.7738 20.0169 22.7738C19.1781 22.7738 19.0423 22.7651 18.9756 22.7068C18.9056 22.6457 18.899 22.5596 18.899 21.7152C18.899 20.8444 18.9039 20.7857 18.9828 20.7095C19.0617 20.6333 19.1225 20.6286 20.0168 20.6286C20.8421 20.6286 20.977 20.6374 21.0436 20.6956Z" fill="white"/>
<path fill-rule="evenodd" clip-rule="evenodd" d="M11.961 6.03811C11.9417 6.0599 11.8853 6.19065 11.8357 6.32866C11.786 6.46668 11.7297 6.59742 11.7104 6.61921C11.69 6.64238 11.6167 6.65892 11.5341 6.65904C11.2056 6.65952 10.9783 6.69458 10.947 6.74962C10.9028 6.82714 10.9372 6.86633 11.2187 7.06012C11.3577 7.15579 11.4789 7.25245 11.4881 7.27493C11.4973 7.29741 11.4593 7.44619 11.4037 7.60556C11.3262 7.82787 11.3103 7.90679 11.3355 7.94461C11.3962 8.03568 11.4824 8.01308 11.7448 7.83714C11.8871 7.74174 12.0291 7.6637 12.0605 7.6637C12.0918 7.6637 12.2126 7.72879 12.3291 7.80838C12.6066 7.99807 12.6758 8.02726 12.7361 7.98024C12.8012 7.92939 12.7948 7.85024 12.7053 7.60413C12.5902 7.28728 12.6012 7.25372 12.8871 7.04806C13.1909 6.82949 13.2197 6.78886 13.1231 6.71445C13.0622 6.66745 13.0025 6.65883 12.7374 6.65883C12.5079 6.65883 12.4143 6.64818 12.3887 6.61921C12.3694 6.59742 12.3131 6.46668 12.2634 6.32866C12.2138 6.19065 12.1574 6.0599 12.1382 6.03811C12.0933 5.9873 12.0058 5.9873 11.961 6.03811Z" fill="white"/>
<path fill-rule="evenodd" clip-rule="evenodd" d="M14.2023 6.03811C14.1831 6.0599 14.1267 6.19065 14.0771 6.32866C14.0274 6.46668 13.971 6.59742 13.9518 6.61921C13.9314 6.64238 13.8581 6.65892 13.7754 6.65904C13.447 6.65952 13.2197 6.69458 13.1884 6.74962C13.1442 6.82714 13.1785 6.86633 13.4601 7.06012C13.599 7.15579 13.7203 7.25245 13.7295 7.27493C13.7386 7.29741 13.7007 7.44619 13.6451 7.60556C13.5675 7.82787 13.5516 7.90679 13.5769 7.94461C13.6376 8.03568 13.7238 8.01308 13.9862 7.83714C14.1285 7.74174 14.2705 7.6637 14.3018 7.6637C14.3332 7.6637 14.454 7.72879 14.5704 7.80838C14.848 7.99807 14.9171 8.02726 14.9775 7.98024C15.0426 7.92939 15.0362 7.85024 14.9467 7.60413C14.8316 7.28728 14.8426 7.25372 15.1284 7.04806C15.4323 6.82949 15.461 6.78886 15.3645 6.71445C15.3036 6.66745 15.2438 6.65883 14.9787 6.65883C14.7493 6.65883 14.6556 6.64818 14.6301 6.61921C14.6108 6.59742 14.5545 6.46668 14.5048 6.32866C14.4552 6.19065 14.3988 6.0599 14.3795 6.03811C14.3347 5.9873 14.2472 5.9873 14.2023 6.03811Z" fill="white"/>
<path fill-rule="evenodd" clip-rule="evenodd" d="M16.6161 6.03811C16.5969 6.0599 16.5405 6.19065 16.4909 6.32866C16.4412 6.46668 16.3848 6.59742 16.3656 6.61921C16.3452 6.64238 16.2719 6.65892 16.1892 6.65904C15.8608 6.65952 15.6335 6.69458 15.6022 6.74962C15.558 6.82714 15.5923 6.86633 15.8738 7.06012C16.0128 7.15579 16.1341 7.25245 16.1433 7.27493C16.1524 7.29741 16.1144 7.44619 16.0589 7.60556C15.9813 7.82787 15.9654 7.90679 15.9906 7.94461C16.0514 8.03568 16.1375 8.01308 16.4 7.83714C16.5423 7.74174 16.6843 7.6637 16.7156 7.6637C16.747 7.6637 16.8678 7.72879 16.9842 7.80838C17.2618 7.99807 17.3309 8.02726 17.3912 7.98024C17.4564 7.92939 17.45 7.85024 17.3605 7.60413C17.2454 7.28728 17.2564 7.25372 17.5422 7.04806C17.8461 6.82949 17.8748 6.78886 17.7783 6.71445C17.7174 6.66745 17.6576 6.65883 17.3925 6.65883C17.1631 6.65883 17.0694 6.64818 17.0439 6.61921C17.0246 6.59742 16.9682 6.46668 16.9186 6.32866C16.8689 6.19065 16.8126 6.0599 16.7933 6.03811C16.7484 5.9873 16.661 5.9873 16.6161 6.03811Z" fill="white"/>
<path fill-rule="evenodd" clip-rule="evenodd" d="M19.0299 6.03811C19.0107 6.0599 18.9543 6.19065 18.9047 6.32866C18.855 6.46668 18.7986 6.59742 18.7794 6.61921C18.7589 6.64238 18.6857 6.65892 18.603 6.65904C18.2746 6.65952 18.0473 6.69458 18.016 6.74962C17.9718 6.82714 18.0061 6.86633 18.2876 7.06012C18.4266 7.15579 18.5479 7.25245 18.5571 7.27493C18.5662 7.29741 18.5282 7.44619 18.4727 7.60556C18.3951 7.82787 18.3792 7.90679 18.4044 7.94461C18.4652 8.03568 18.5513 8.01308 18.8138 7.83714C18.9561 7.74174 19.0981 7.6637 19.1294 7.6637C19.1607 7.6637 19.2816 7.72879 19.398 7.80838C19.6756 7.99807 19.7447 8.02726 19.805 7.98024C19.8702 7.92939 19.8638 7.85024 19.7743 7.60413C19.6592 7.28728 19.6701 7.25372 19.956 7.04806C20.2599 6.82949 20.2886 6.78886 20.1921 6.71445C20.1312 6.66745 20.0714 6.65883 19.8063 6.65883C19.5769 6.65883 19.4832 6.64818 19.4577 6.61921C19.4384 6.59742 19.382 6.46668 19.3324 6.32866C19.2827 6.19065 19.2264 6.0599 19.2071 6.03811C19.1622 5.9873 19.0748 5.9873 19.0299 6.03811Z" fill="white"/>
<path fill-rule="evenodd" clip-rule="evenodd" d="M21.2713 6.03811C21.252 6.0599 21.1957 6.19065 21.146 6.32866C21.0964 6.46668 21.04 6.59742 21.0208 6.61921C21.0003 6.64238 20.9271 6.65892 20.8444 6.65904C20.5159 6.65952 20.2887 6.69458 20.2573 6.74962C20.2132 6.82714 20.2475 6.86633 20.529 7.06012C20.668 7.15579 20.7892 7.25245 20.7984 7.27493C20.8076 7.29741 20.7696 7.44619 20.714 7.60556C20.6365 7.82787 20.6206 7.90679 20.6458 7.94461C20.7066 8.03568 20.7927 8.01308 21.0552 7.83714C21.1974 7.74174 21.3395 7.6637 21.3708 7.6637C21.4021 7.6637 21.523 7.72879 21.6394 7.80838C21.917 7.99807 21.9861 8.02726 22.0464 7.98024C22.1116 7.92939 22.1051 7.85024 22.0157 7.60413C21.9006 7.28728 21.9115 7.25372 22.1974 7.04806C22.5013 6.82949 22.53 6.78886 22.4335 6.71445C22.3725 6.66745 22.3128 6.65883 22.0477 6.65883C21.8183 6.65883 21.7246 6.64818 21.699 6.61921C21.6798 6.59742 21.6234 6.46668 21.5738 6.32866C21.5241 6.19065 21.4678 6.0599 21.4485 6.03811C21.4036 5.9873 21.3162 5.9873 21.2713 6.03811Z" fill="white"/>
</svg>