<svg width="34" height="41" viewBox="0 0 34 41" fill="none" xmlns="http://www.w3.org/2000/svg">
<path d="M28.4016 28.4015L16.6373 40.1659L4.87287 28.4015C2.54613 26.0747 0.961608 23.1102 0.319673 19.8829C-0.322263 16.6556 0.00722206 13.3104 1.26646 10.2704C2.5257 7.23035 4.65814 4.63198 7.39412 2.80387C10.1301 0.975752 13.3467 0 16.6373 0C19.9278 0 23.1444 0.975752 25.8804 2.80387C28.6164 4.63198 30.7488 7.23035 32.008 10.2704C33.2673 13.3104 33.5968 16.6556 32.9548 19.8829C32.3129 23.1102 30.7284 26.0747 28.4016 28.4015Z" fill="#5A9D32"/>
<path fill-rule="evenodd" clip-rule="evenodd" d="M5.82863 8.02892C5.57372 8.10901 5.34502 8.30018 5.18369 8.56806L5.02974 8.82366L5.01487 16.9118L5 25H6.14687H7.29375V22.7631V20.5263H19.3126H25.6989V22.7631V25H26.8449H27.9909V21.6447V18.2894H20.4586H7.29375V13.6037V8.91794L7.13762 8.62622C6.93766 8.25266 6.63523 8.03913 6.25924 8.00596C6.10568 7.99242 5.91192 8.00274 5.82863 8.02892ZM10.4227 9.68889C9.37351 9.90947 8.66977 10.9505 8.85776 12.0039C8.93625 12.4441 9.07801 12.7207 9.39391 13.0502C10.2044 13.8959 11.5627 13.9016 12.4192 13.0628C13.2365 12.2625 13.2365 11.0588 12.4192 10.2585C12.0948 9.94079 11.7345 9.75398 11.2922 9.67416C10.8988 9.60324 10.824 9.60449 10.4227 9.68889ZM14.8125 10.809C14.5419 10.9309 14.3716 11.1036 14.2562 11.3733C14.1845 11.5406 14.1696 11.8608 14.1696 13.2388V14.9023L11.8357 14.9182C9.70311 14.9328 9.48408 14.9427 9.29553 15.0343C8.9936 15.1809 8.88985 15.3645 8.88985 15.7525C8.88985 16.1404 8.9936 16.3241 9.29553 16.4707C9.49353 16.5668 9.98904 16.5714 21.5671 16.585L28 16.5991L27.9813 15.0574C27.9641 13.6307 27.9539 13.4973 27.846 13.2701C27.639 12.8347 27.1482 12.4883 26.5374 12.3466C26.3162 12.2952 15.4255 10.704 15.1455 10.7071C15.0853 10.7078 14.9355 10.7536 14.8125 10.809Z" fill="white"/>
</svg>