<svg width="34" height="41" viewBox="0 0 34 41" fill="none" xmlns="http://www.w3.org/2000/svg">
<path d="M28.4016 28.4015L16.6373 40.1659L4.87287 28.4015C2.54613 26.0747 0.961608 23.1102 0.319673 19.8829C-0.322263 16.6556 0.00722206 13.3104 1.26646 10.2704C2.5257 7.23035 4.65814 4.63198 7.39412 2.80387C10.1301 0.975752 13.3467 0 16.6373 0C19.9278 0 23.1444 0.975752 25.8804 2.80387C28.6164 4.63198 30.7488 7.23035 32.008 10.2704C33.2673 13.3104 33.5968 16.6556 32.9548 19.8829C32.3129 23.1102 30.7284 26.0747 28.4016 28.4015Z" fill="#9C8762"/>
<path fill-rule="evenodd" clip-rule="evenodd" d="M13.8913 6.22961C14.4946 5.90663 15.4487 5.92416 16.8333 6.28365C17.2183 6.3836 18.0095 6.68461 18.3426 6.8579C19.7538 7.59192 20.8506 8.76511 21.349 10.0736C21.467 10.3834 21.6496 11.1415 21.6799 11.4473C21.6953 11.6024 21.6869 11.6794 21.6417 11.7978C21.5856 11.9446 21.3866 12.3002 21.158 12.6702L21.1361 12.6621C21.1361 12.6621 19.456 15.7901 17.7092 17.1168C16.4346 18.085 16.3635 18.6217 14.0323 18.9237C11.7012 19.2256 11.4961 19.0903 10.5097 18.021C10.2596 17.7499 10.0281 17.3697 9.7872 16.8345L9.55231 16.3128L9.24885 16.391C8.8952 16.4822 8.37704 16.7035 8.04189 16.9067C7.73401 17.0933 7.26792 17.4431 6.97426 17.7079C6.80085 17.8643 6.73489 17.9087 6.72124 17.8785C6.69511 17.8205 7.03651 16.9079 7.15577 16.7169C7.20663 16.6355 7.312 16.4723 7.38992 16.3542C7.46784 16.2361 7.52656 16.1283 7.52037 16.1146C7.5029 16.0758 7.20376 16.1261 6.96942 16.2071C6.73045 16.2898 6.4536 16.4468 6.28153 16.5973C6.21799 16.6529 6.15702 16.6952 6.1461 16.6914C6.10961 16.6787 6.29357 16.2295 6.40721 16.0539C6.70726 15.59 7.11036 15.2707 7.76171 14.9809C8.13004 14.817 8.34195 14.747 8.8644 14.6168C9.07282 14.5649 9.24626 14.5145 9.2498 14.5049C9.25336 14.4953 9.26112 14.3285 9.26709 14.1343C9.27754 13.7941 9.27493 13.7787 9.19685 13.7168C9.02954 13.5841 8.63243 13.146 8.45192 12.895C8.21476 12.5651 7.96225 12.0126 7.90948 11.708C7.83968 11.3051 7.85529 11.1915 8.05473 10.6513C8.25241 10.116 8.32994 9.99012 8.65036 9.68452C9.16375 9.19489 9.7711 8.92229 10.5553 8.8295C10.8633 8.79308 11.4678 8.78887 11.5585 8.82253C11.6124 8.84253 11.6376 8.81198 12.0673 8.20524C12.8505 7.09949 13.4211 6.48137 13.8913 6.22961ZM14.7231 10.2759C14.6965 9.98889 14.5366 9.64489 14.3229 9.41542C14.1521 9.23199 14.1266 9.21457 13.8903 9.11974C13.5859 8.99754 13.4204 8.97694 13.0637 9.01673C12.8543 9.0401 12.7301 9.07699 12.5006 9.18392C12.103 9.3692 11.9168 9.55545 12.0293 9.65546C12.0491 9.67303 12.2103 9.70234 12.3874 9.72058C12.6541 9.74805 12.7664 9.77462 13.039 9.87464C13.554 10.0637 13.8061 10.2842 14.1478 10.8449C14.254 11.0192 14.3555 11.1672 14.3733 11.1738C14.5467 11.2381 14.7611 10.6877 14.7231 10.2759ZM19.0378 13.5187C19.1308 12.9439 18.9502 12.381 18.5599 12.0291C18.202 11.7065 17.5791 11.5679 17.0566 11.6948C16.7194 11.7766 16.2737 12.0535 16.2126 12.2189C16.1654 12.3466 16.2987 12.3938 16.9403 12.4764C17.4751 12.5454 17.7943 12.6962 18.093 13.0212C18.3433 13.2936 18.5237 13.6206 18.6412 14.0152C18.7351 14.3307 18.9499 14.0617 19.0378 13.5187ZM9.76889 12.0052C9.83065 11.838 10.1637 11.1912 10.4122 10.756C10.5058 10.5921 10.5839 10.4429 10.5858 10.4245C10.5902 10.3825 10.4185 10.3445 10.1062 10.3184C9.53878 10.2709 9.09462 10.4567 8.90029 10.8228C8.7738 11.0611 8.86319 11.359 9.15681 11.6777C9.26288 11.7928 9.64471 12.1242 9.69108 12.1414C9.70439 12.1464 9.73941 12.0851 9.76889 12.0052ZM11.5582 12.0269C11.4955 11.8208 11.4274 11.6224 11.4069 11.5858C11.3595 11.5017 11.2987 11.4779 11.2318 11.5173C11.1605 11.5592 10.9033 12.2556 10.8582 12.5289C10.7724 13.0486 10.798 13.7383 10.9228 14.2669C10.9957 14.5755 11.2397 15.1595 11.405 15.4211C12.222 16.7134 14.1387 17.2458 15.8589 16.6582C16.1805 16.5483 16.7851 16.2585 16.9959 16.1131C17.4031 15.8321 17.6519 15.5221 17.5404 15.4344C17.5129 15.4127 17.3791 15.4052 17.1959 15.4151C16.4613 15.4546 15.659 15.4004 15.0409 15.2694C14.6446 15.1854 13.932 14.929 13.6415 14.7658C12.6154 14.1894 11.9494 13.3138 11.5582 12.0269Z" fill="white"/>
<path fill-rule="evenodd" clip-rule="evenodd" d="M9.90442 18.8721C9.67486 18.8784 9.47885 18.8903 9.36689 18.9078C8.41062 19.0571 7.70101 19.3952 7.10354 19.9861C6.74369 20.342 6.41647 20.8137 6.1959 21.2944L6.11305 21.475L6.0844 22.6065L6.20053 22.3573C6.69808 21.2899 7.25541 20.6162 7.92938 20.2673L8.12771 20.1647L8.11236 20.9345C8.10392 21.3579 8.09099 21.9932 8.08364 22.3463L8.0703 22.9882L7.90955 23.0729C7.21927 23.4367 6.55629 24.1132 6.20313 24.8142C6.03495 25.148 6.03093 25.1649 6.01472 25.6027L6 26L6.12788 25.7423C6.65889 24.6719 7.39767 23.9891 8.40499 23.6376C9.60707 23.2181 11.2083 23.3004 13.846 23.917C13.904 23.9306 14.0032 23.9538 14.1277 23.983C14.3704 24.0398 14.7092 24.1192 15.0248 24.1933C17.3854 24.747 18.3594 24.8935 19.6816 24.8938C21.5599 24.8942 23.4213 24.5054 25.0705 23.7683C25.5084 23.5726 26.0103 23.3049 26.3349 23.0939L26.49 22.9931L26.4903 22.887C26.4904 22.8286 26.5095 21.9636 26.5326 20.9647C26.5558 19.9658 26.5775 18.9963 26.5809 18.8102C26.5843 18.6241 26.587 18.4725 26.587 18.4731C26.587 18.4737 26.4616 18.5513 26.3084 18.6454C25.1782 19.3399 23.674 19.8905 22.1829 20.1558C21.3619 20.3018 20.6683 20.3616 19.7933 20.3616C18.4359 20.3616 17.6388 20.2482 15.1312 19.6673C14.8136 19.7401 14.4457 19.8053 14.0116 19.8638C13.0266 19.9967 12.3625 20.0617 11.8625 20.0326C11.8561 20.5573 11.807 22.6484 11.7994 22.6563C11.7957 22.6601 11.6303 22.6434 11.4317 22.6193C10.6163 22.52 9.78212 22.5067 9.24126 22.5845C9.10734 22.6038 8.9957 22.6166 8.99319 22.613C8.9897 22.608 9.05847 20.0587 9.06535 19.9384C9.06773 19.8969 9.46811 19.8006 9.74194 19.7756C9.97391 19.7545 10.5755 19.7642 10.8887 19.7942C10.9102 19.7962 10.9323 19.7984 10.9548 19.8006C10.6098 19.6155 10.3131 19.315 9.90442 18.8721ZM25.6937 22.5398C25.6974 22.5375 25.7142 21.9675 25.731 21.2732C25.7478 20.5789 25.7592 20.0091 25.7563 20.007C25.7535 20.005 25.621 20.0603 25.4619 20.1299C24.7597 20.4369 23.8181 20.7546 23.0883 20.9305L22.933 20.968L22.9334 21.1214C22.9337 21.2058 22.9223 21.7894 22.9082 22.4183C22.894 23.0472 22.8883 23.5676 22.8954 23.5747C22.9025 23.5818 23.049 23.5477 23.2209 23.4989C23.997 23.2785 24.6782 23.0238 25.3654 22.6969C25.5422 22.6127 25.6899 22.5421 25.6937 22.5398ZM15.0569 20.5976C14.4086 20.4339 13.7673 20.2744 13.6317 20.243C13.0725 20.1138 12.9218 20.0862 12.9138 20.1116C12.8999 20.1559 12.8461 22.8207 12.8588 22.8363C12.8655 22.8446 13.0735 22.8949 13.321 22.9481C13.5685 23.0013 14.2533 23.1555 14.8426 23.2909C15.9973 23.5562 16.7791 23.7228 16.7947 23.7072C16.8022 23.6996 16.8659 21.4196 16.8676 21.1012L16.8679 21.035L16.5518 20.9651C16.3779 20.9267 15.7052 20.7614 15.0569 20.5976ZM21.8538 22.832C21.8672 22.2945 21.8793 21.7025 21.8805 21.5164L21.8828 21.1782L21.8239 21.1807C21.7915 21.1821 21.7167 21.1915 21.6578 21.2016C21.4451 21.2382 20.7497 21.3067 20.3749 21.3281C19.6494 21.3696 18.8438 21.347 18.2251 21.268L17.9214 21.2292L17.9095 21.4239C17.8856 21.817 17.8512 23.8689 17.8682 23.8846C17.8948 23.9089 18.4764 23.969 18.936 23.9949C19.7243 24.0394 20.8344 23.9748 21.6685 23.836L21.8292 23.8092L21.8538 22.832Z" fill="white"/>
<path fill-rule="evenodd" clip-rule="evenodd" d="M16.8019 18.9767C18.369 19.3042 20.1247 19.3591 21.8078 19.0823C24.4677 18.6448 26.4194 17.4451 26.8945 15.9555C27.2079 14.973 26.8157 13.9205 25.8176 13.0657C25.0812 12.4349 24.0794 11.9292 22.9066 11.5824C22.797 11.7934 22.6303 12.0833 22.4478 12.3811L22.4219 12.3715C22.4219 12.3715 20.4309 16.1043 18.3632 17.6931C18.0351 17.9453 17.7743 18.1728 17.5387 18.3783C17.2813 18.6029 17.054 18.8012 16.8019 18.9767ZM25.3882 14.3812C25.204 14.0038 24.6379 13.704 23.9509 13.6201C23.6946 13.5887 23.2459 13.5935 23.0116 13.6301C22.4323 13.7204 21.9679 13.9618 21.7784 14.2711C21.7059 14.3896 21.7007 14.4097 21.7007 14.5718C21.7007 14.7242 21.7084 14.7596 21.7643 14.8607C21.9352 15.1699 22.3851 15.4321 22.9492 15.5512C23.2252 15.6095 23.7348 15.6303 24.017 15.5948C25.0426 15.4658 25.6537 14.925 25.3882 14.3812ZM23.5096 16.724C23.2602 16.4926 22.8554 16.3217 22.3867 16.25C22.2805 16.2338 22.0971 16.216 21.9793 16.2106C20.8237 16.1575 19.8669 16.7148 20.0471 17.3361C20.1186 17.5826 20.3238 17.7863 20.6719 17.9565C21.0491 18.141 21.4469 18.2233 21.9578 18.2226C22.658 18.2216 23.221 18.0465 23.548 17.728C23.7175 17.5628 23.7778 17.4374 23.7788 17.2477C23.7798 17.0511 23.7047 16.9051 23.5096 16.724Z" fill="white"/>
</svg>