<svg width="34" height="41" viewBox="0 0 34 41" fill="none" xmlns="http://www.w3.org/2000/svg">
<path d="M28.4016 28.4015L16.6373 40.1659L4.87287 28.4015C2.54613 26.0747 0.961608 23.1102 0.319673 19.8829C-0.322263 16.6556 0.00722206 13.3104 1.26646 10.2704C2.5257 7.23035 4.65814 4.63198 7.39412 2.80387C10.1301 0.975752 13.3467 0 16.6373 0C19.9278 0 23.1444 0.975752 25.8804 2.80387C28.6164 4.63198 30.7488 7.23035 32.008 10.2704C33.2673 13.3104 33.5968 16.6556 32.9548 19.8829C32.3129 23.1102 30.7284 26.0747 28.4016 28.4015Z" fill="#9C8762"/>
<path d="M22.5645 13.0301V7.68768C22.5645 7.30766 22.263 7 21.8906 7H11.1094C10.737 7 10.4355 7.30766 10.4355 7.68768V11.4758C11.0857 11.2851 11.7625 11.1719 12.457 11.1719C14.4915 11.1719 16.3907 12.0038 17.7826 13.4767C18.5829 12.8823 19.5356 12.5473 20.543 12.5473C21.2529 12.5473 21.9387 12.7258 22.5645 13.0301ZM17.8477 11.8596C17.1047 11.8596 16.5 11.2425 16.5 10.4842C16.5 9.726 17.1047 9.10888 17.8477 9.10888C18.5906 9.10888 19.1953 9.726 19.1953 10.4842C19.1953 11.2425 18.5906 11.8596 17.8477 11.8596Z" fill="white"/>
<path d="M18.1667 16.6734C17.3007 14.1628 15.0153 12.5473 12.457 12.5473C11.7557 12.5473 11.0766 12.6854 10.4355 12.9198V15.9857C10.4355 16.3657 10.7368 16.6734 11.1094 16.6734H18.1667Z" fill="white"/>
<path d="M21.8906 16.6734C22.263 16.6734 22.5645 16.3657 22.5645 15.9857V14.635C21.9856 14.1891 21.2833 13.9226 20.543 13.9226C19.8428 13.9226 19.1786 14.1463 18.6166 14.5487C19.0477 15.2083 19.3697 15.9226 19.5771 16.6734H21.8906Z" fill="white"/>
<path d="M27.1016 17.3443V23H25.3047V19.3552C23.4842 20.3559 20.2043 21.808 16.5 21.808C12.7957 21.808 9.51577 20.3559 7.69531 19.3552V23H5.89844V17.3443C5.36149 17.0272 5 16.4351 5 15.7564C5 14.7437 5.80451 13.9226 6.79688 13.9226C7.78924 13.9226 8.59375 14.7437 8.59375 15.7564C8.59375 16.3986 8.27009 16.9633 7.78039 17.2909C9.09903 18.0965 12.5918 19.9742 16.5 19.9742C20.4082 19.9742 23.901 18.0965 25.2196 17.2909C24.7299 16.9633 24.4062 16.3986 24.4062 15.7564C24.4062 14.7437 25.2108 13.9226 26.2031 13.9226C27.1955 13.9226 28 14.7437 28 15.7564C28 16.4351 27.6385 17.0272 27.1016 17.3443Z" fill="white"/>
</svg>