<svg width="34" height="41" viewBox="0 0 34 41" fill="none" xmlns="http://www.w3.org/2000/svg">
<path d="M28.4016 28.4015L16.6373 40.1659L4.87287 28.4015C2.54613 26.0747 0.961608 23.1102 0.319673 19.8829C-0.322263 16.6556 0.00722206 13.3104 1.26646 10.2704C2.5257 7.23035 4.65814 4.63198 7.39412 2.80387C10.1301 0.975752 13.3467 0 16.6373 0C19.9278 0 23.1444 0.975752 25.8804 2.80387C28.6164 4.63198 30.7488 7.23035 32.008 10.2704C33.2673 13.3104 33.5968 16.6556 32.9548 19.8829C32.3129 23.1102 30.7284 26.0747 28.4016 28.4015Z" fill="#9C8762"/>
<path fill-rule="evenodd" clip-rule="evenodd" d="M15.9721 4.00852C15.0103 4.09027 14.2847 4.27613 13.4222 4.66178C11.9313 5.32837 10.6661 6.52178 9.89139 7.9924C9.47521 8.78249 9.14848 9.91734 9.10245 10.7328C9.09107 10.9345 9.07394 11.1624 9.06444 11.2392L9.04709 11.379H16.4688C20.5508 11.379 23.899 11.3707 23.9092 11.3606C23.9526 11.3178 23.8614 10.3334 23.7759 9.92207C23.1441 6.88116 20.7349 4.57758 17.6745 4.0882C17.2871 4.02624 16.3046 3.98027 15.9721 4.00852ZM8.27881 11.8306C8.05551 11.9085 7.83482 12.1448 7.79633 12.3473C7.76064 12.5351 7.82794 12.7834 7.95918 12.948C8.12163 13.1518 8.27384 13.1851 9.0402 13.1851H9.73901V17.911V22.6369L9.0307 22.6535C8.25401 22.6717 8.147 22.7003 7.93704 22.9465C7.65829 23.2733 7.7979 23.8408 8.19756 24.0056C8.41241 24.0942 24.5779 24.0942 24.7927 24.0056C25.1924 23.8408 25.332 23.2733 25.0533 22.9465C24.8433 22.7003 24.7363 22.6717 23.9596 22.6535L23.2513 22.6369V17.911V13.1851H23.9501C24.7164 13.1851 24.8687 13.1518 25.0311 12.948C25.164 12.7812 25.2297 12.5354 25.193 12.3421C25.1532 12.1329 24.8988 11.8775 24.6669 11.814C24.5432 11.7801 22.1958 11.767 16.4734 11.7681C9.67445 11.7696 8.42662 11.7791 8.27881 11.8306ZM13.7491 17.9155V22.6458H12.4633H11.1774V17.9155V13.1851H12.4633H13.7491V17.9155ZM17.7921 17.9262L17.8032 22.6458H16.4953H15.1875V17.9441C15.1875 15.3582 15.2009 13.2293 15.2172 13.2132C15.2335 13.197 15.8171 13.189 16.5139 13.1952L17.781 13.2066L17.7865 15.5664L17.7921 17.9262ZM21.8129 17.9155V22.6458H20.527H19.2412V17.9155V13.1851H20.527H21.8129V17.9155ZM6.40039 24.6628C6.18746 24.7582 6.03063 24.9861 6.00304 25.2402C5.97519 25.4969 6.13202 25.7711 6.38099 25.901L6.57082 26H16.4951H26.4195L26.6093 25.901C26.8245 25.7887 26.9998 25.5146 26.9998 25.2905C26.9998 25.0663 26.8245 24.7922 26.6093 24.6799L26.4195 24.5809L16.4992 24.5819C6.922 24.5828 6.57269 24.5855 6.40039 24.6628Z" fill="white"/>
</svg>